M48
; DRILL file {KiCad 9.0.4} date 2026-05-16T22:08:27+0200
; FORMAT={-:-/ absolute / metric / decimal}
; #@! TF.CreationDate,2026-05-16T22:08:27+02:00
; #@! TF.GenerationSoftware,Kicad,Pcbnew,9.0.4
; #@! TF.FileFunction,NonPlated,1,2,NPTH
FMAT,2
METRIC
; #@! TA.AperFunction,NonPlated,NPTH,ComponentDrill
T1C2.400
; #@! TA.AperFunction,NonPlated,NPTH,ComponentDrill
T2C3.200
; #@! TA.AperFunction,NonPlated,NPTH,ComponentDrill
T3C3.300
%
G90
G05
T1
X106.25Y-111.5
X106.25Y-123.5
X116.0Y-106.2
X116.0Y-128.75
X128.0Y-106.2
X128.0Y-128.75
X134.0Y-106.2
X134.0Y-128.75
X146.0Y-106.2
X146.0Y-128.75
X152.0Y-106.2
X152.0Y-128.75
X164.0Y-106.2
X164.0Y-128.75
X173.75Y-111.5
X173.75Y-123.5
T2
X107.0Y-105.0
X107.0Y-130.0
X173.0Y-105.0
X173.0Y-130.0
T3
X102.2Y-112.2
X102.2Y-122.8
X116.7Y-102.15
X116.7Y-132.8
X127.3Y-102.15
X127.3Y-132.8
X134.7Y-102.15
X134.7Y-132.8
X145.3Y-102.15
X145.3Y-132.8
X152.7Y-102.15
X152.7Y-132.8
X163.3Y-102.15
X163.3Y-132.8
X177.8Y-112.2
X177.8Y-122.8
M30
