%TF.GenerationSoftware,KiCad,Pcbnew,9.0.4*%
%TF.CreationDate,2026-05-16T22:08:25+02:00*%
%TF.ProjectId,lnet_distribution,6c6e6574-5f64-4697-9374-726962757469,rev?*%
%TF.SameCoordinates,Original*%
%TF.FileFunction,Copper,L1,Top*%
%TF.FilePolarity,Positive*%
%FSLAX46Y46*%
G04 Gerber Fmt 4.6, Leading zero omitted, Abs format (unit mm)*
G04 Created by KiCad (PCBNEW 9.0.4) date 2026-05-16 22:08:25*
%MOMM*%
%LPD*%
G01*
G04 APERTURE LIST*
%TA.AperFunction,ComponentPad*%
%ADD10C,1.408000*%
%TD*%
%TA.AperFunction,ViaPad*%
%ADD11C,0.600000*%
%TD*%
%TA.AperFunction,Conductor*%
%ADD12C,1.000000*%
%TD*%
%TA.AperFunction,Conductor*%
%ADD13C,1.600000*%
%TD*%
%TA.AperFunction,Conductor*%
%ADD14C,1.800000*%
%TD*%
G04 APERTURE END LIST*
D10*
%TO.P,J1,1*%
%TO.N,SYNC_A*%
X119460000Y-111040000D03*
%TO.P,J1,2*%
%TO.N,GND*%
X120475000Y-108500000D03*
%TO.P,J1,3*%
%TO.N,LNET*%
X121490000Y-111040000D03*
%TO.P,J1,4*%
X122510000Y-108500000D03*
%TO.P,J1,5*%
%TO.N,GND*%
X123525000Y-111040000D03*
%TO.P,J1,6*%
%TO.N,SYNC_B*%
X124540000Y-108500000D03*
%TD*%
%TO.P,J7,1*%
%TO.N,SYNC_A*%
X111090000Y-120040000D03*
%TO.P,J7,2*%
%TO.N,GND*%
X108550000Y-119025000D03*
%TO.P,J7,3*%
%TO.N,LNET*%
X111090000Y-118010000D03*
%TO.P,J7,4*%
X108550000Y-116990000D03*
%TO.P,J7,5*%
%TO.N,GND*%
X111090000Y-115975000D03*
%TO.P,J7,6*%
%TO.N,SYNC_B*%
X108550000Y-114960000D03*
%TD*%
%TO.P,J4,1*%
%TO.N,SYNC_A*%
X160540000Y-123910000D03*
%TO.P,J4,2*%
%TO.N,GND*%
X159525000Y-126450000D03*
%TO.P,J4,3*%
%TO.N,LNET*%
X158510000Y-123910000D03*
%TO.P,J4,4*%
X157490000Y-126450000D03*
%TO.P,J4,5*%
%TO.N,GND*%
X156475000Y-123910000D03*
%TO.P,J4,6*%
%TO.N,SYNC_B*%
X155460000Y-126450000D03*
%TD*%
%TO.P,J2,1*%
%TO.N,SYNC_A*%
X168910000Y-114960000D03*
%TO.P,J2,2*%
%TO.N,GND*%
X171450000Y-115975000D03*
%TO.P,J2,3*%
%TO.N,LNET*%
X168910000Y-116990000D03*
%TO.P,J2,4*%
X171450000Y-118010000D03*
%TO.P,J2,5*%
%TO.N,GND*%
X168910000Y-119025000D03*
%TO.P,J2,6*%
%TO.N,SYNC_B*%
X171450000Y-120040000D03*
%TD*%
%TO.P,J6,1*%
%TO.N,SYNC_A*%
X142540000Y-123910000D03*
%TO.P,J6,2*%
%TO.N,GND*%
X141525000Y-126450000D03*
%TO.P,J6,3*%
%TO.N,LNET*%
X140510000Y-123910000D03*
%TO.P,J6,4*%
X139490000Y-126450000D03*
%TO.P,J6,5*%
%TO.N,GND*%
X138475000Y-123910000D03*
%TO.P,J6,6*%
%TO.N,SYNC_B*%
X137460000Y-126450000D03*
%TD*%
%TO.P,J8,1*%
%TO.N,SYNC_A*%
X124540000Y-123910000D03*
%TO.P,J8,2*%
%TO.N,GND*%
X123525000Y-126450000D03*
%TO.P,J8,3*%
%TO.N,LNET*%
X122510000Y-123910000D03*
%TO.P,J8,4*%
X121490000Y-126450000D03*
%TO.P,J8,5*%
%TO.N,GND*%
X120475000Y-123910000D03*
%TO.P,J8,6*%
%TO.N,SYNC_B*%
X119460000Y-126450000D03*
%TD*%
%TO.P,J3,1*%
%TO.N,SYNC_A*%
X137460000Y-111040000D03*
%TO.P,J3,2*%
%TO.N,GND*%
X138475000Y-108500000D03*
%TO.P,J3,3*%
%TO.N,LNET*%
X139490000Y-111040000D03*
%TO.P,J3,4*%
X140510000Y-108500000D03*
%TO.P,J3,5*%
%TO.N,GND*%
X141525000Y-111040000D03*
%TO.P,J3,6*%
%TO.N,SYNC_B*%
X142540000Y-108500000D03*
%TD*%
%TO.P,J5,1*%
%TO.N,SYNC_A*%
X155460000Y-111040000D03*
%TO.P,J5,2*%
%TO.N,GND*%
X156475000Y-108500000D03*
%TO.P,J5,3*%
%TO.N,LNET*%
X157490000Y-111040000D03*
%TO.P,J5,4*%
X158510000Y-108500000D03*
%TO.P,J5,5*%
%TO.N,GND*%
X159525000Y-111040000D03*
%TO.P,J5,6*%
%TO.N,SYNC_B*%
X160540000Y-108500000D03*
%TD*%
D11*
%TO.N,GND*%
X112650000Y-110450000D03*
X114850000Y-124950000D03*
X167300000Y-124200000D03*
X162000000Y-119400000D03*
X166600000Y-114950000D03*
X143550000Y-119450000D03*
X155300000Y-115150000D03*
X136750000Y-115100000D03*
X124900000Y-120150000D03*
%TO.N,SYNC_B*%
X143680000Y-108500000D03*
%TO.N,GND*%
X120500000Y-119950000D03*
X138450000Y-119950000D03*
X156500000Y-119950000D03*
X159550000Y-115350000D03*
X141550000Y-115050000D03*
X123700000Y-114950000D03*
X116000000Y-114900000D03*
X125600000Y-110400000D03*
X129100000Y-110400000D03*
X143500000Y-110300000D03*
X147800000Y-110300000D03*
X166400000Y-112500000D03*
X163900000Y-112500000D03*
X166800000Y-120400000D03*
X150900000Y-124500000D03*
X116100000Y-121900000D03*
X132500000Y-124500000D03*
X161425000Y-125900000D03*
X128825000Y-124575000D03*
X136625000Y-124525000D03*
X154875000Y-108800000D03*
X136375000Y-108850000D03*
X170700000Y-114250000D03*
X161600000Y-112500000D03*
X159500000Y-112700000D03*
X141550000Y-112650000D03*
X123550000Y-112700000D03*
X118750000Y-108950000D03*
X108550000Y-120600000D03*
X120500000Y-121850000D03*
X125700000Y-125925000D03*
X143300000Y-125600000D03*
X138450000Y-122250000D03*
X156475000Y-122200000D03*
X154600000Y-124500000D03*
X147000000Y-124600000D03*
X163000000Y-121100000D03*
X151300000Y-110300000D03*
X133000000Y-110400000D03*
X117433278Y-113600000D03*
X113300000Y-115000000D03*
X114200000Y-121900000D03*
%TO.N,SYNC_A*%
X155460000Y-112030000D03*
%TO.N,GND*%
X118435000Y-121870000D03*
%TO.N,SYNC_A*%
X142580000Y-122860000D03*
%TO.N,SYNC_B*%
X171460000Y-121150000D03*
X161670000Y-108500000D03*
X125740000Y-108530000D03*
X108550000Y-113830000D03*
X154320000Y-126460000D03*
X118354591Y-126435409D03*
X136244156Y-126465844D03*
%TO.N,SYNC_A*%
X119430000Y-112050000D03*
X137450000Y-112040000D03*
X112250000Y-120030000D03*
X168210000Y-114250000D03*
X160580000Y-122900000D03*
X124520000Y-122590000D03*
%TD*%
D12*
%TO.N,SYNC_A*%
X168060000Y-108660000D02*
X170130000Y-110730000D01*
X162157471Y-107289001D02*
X162871000Y-108002530D01*
X162139000Y-107289000D02*
X162157471Y-107289001D01*
X163510000Y-108660000D02*
X168060000Y-108660000D01*
X161410000Y-106560000D02*
X162139000Y-107289000D01*
X154990000Y-106560000D02*
X161410000Y-106560000D01*
X153409000Y-108141000D02*
X154990000Y-106560000D01*
X162870999Y-108020999D02*
X163510000Y-108660000D01*
X162871000Y-108002530D02*
X162870999Y-108020999D01*
%TO.N,SYNC_B*%
X161660000Y-108490000D02*
X160550000Y-108490000D01*
X161670000Y-108500000D02*
X161660000Y-108490000D01*
X160550000Y-108490000D02*
X160540000Y-108500000D01*
X161670000Y-108500000D02*
X160540000Y-108500000D01*
%TO.N,SYNC_A*%
X127350000Y-108400000D02*
X134690000Y-108400000D01*
X125520000Y-106570000D02*
X127350000Y-108400000D01*
X134690000Y-108400000D02*
X134700000Y-108410000D01*
X118960000Y-106570000D02*
X125520000Y-106570000D01*
X117270000Y-108260000D02*
X118960000Y-106570000D01*
X145200000Y-108300000D02*
X153250000Y-108300000D01*
X145051000Y-108151000D02*
X145200000Y-108300000D01*
X143368470Y-106490000D02*
X145029470Y-108151000D01*
X153250000Y-108300000D02*
X153409000Y-108141000D01*
X134969000Y-108141000D02*
X136620000Y-106490000D01*
X136620000Y-106490000D02*
X143368470Y-106490000D01*
X145029470Y-108151000D02*
X145051000Y-108151000D01*
%TO.N,SYNC_B*%
X142540000Y-108500000D02*
X143680000Y-108500000D01*
%TO.N,SYNC_A*%
X112150000Y-108400000D02*
X106770000Y-113780000D01*
X106770000Y-121090000D02*
X108395000Y-122715000D01*
X117270000Y-108260000D02*
X117130000Y-108400000D01*
X117130000Y-108400000D02*
X112150000Y-108400000D01*
X106770000Y-113780000D02*
X106770000Y-121090000D01*
D13*
%TO.N,GND*%
X125014000Y-126450000D02*
X125539000Y-125925000D01*
X123525000Y-126450000D02*
X125014000Y-126450000D01*
X160809000Y-126450000D02*
X161359000Y-125900000D01*
X159525000Y-126450000D02*
X160809000Y-126450000D01*
X142450000Y-126450000D02*
X143300000Y-125600000D01*
X141525000Y-126450000D02*
X142450000Y-126450000D01*
X155260000Y-108500000D02*
X154960000Y-108800000D01*
X156475000Y-108500000D02*
X155260000Y-108500000D01*
X136803446Y-108500000D02*
X136414223Y-108889223D01*
X138475000Y-108500000D02*
X136803446Y-108500000D01*
D12*
%TO.N,SYNC_A*%
X135700000Y-112040000D02*
X137450000Y-112040000D01*
X134700000Y-111040000D02*
X135700000Y-112040000D01*
X134969000Y-108141000D02*
X134700000Y-108410000D01*
X134700000Y-108410000D02*
X134700000Y-111040000D01*
D13*
%TO.N,GND*%
X138400000Y-108575000D02*
X137850000Y-108575000D01*
X138475000Y-108500000D02*
X138400000Y-108575000D01*
X119271000Y-108500000D02*
X118821000Y-108950000D01*
X120475000Y-108500000D02*
X119271000Y-108500000D01*
X111090000Y-115975000D02*
X112090000Y-114975000D01*
X112090000Y-114975000D02*
X113275000Y-114975000D01*
X113275000Y-114975000D02*
X113300000Y-115000000D01*
X171450000Y-115000000D02*
X170700000Y-114250000D01*
X171450000Y-115975000D02*
X171450000Y-115000000D01*
X118435000Y-121870000D02*
X120475000Y-123910000D01*
D12*
%TO.N,SYNC_A*%
X168210000Y-112650000D02*
X170130000Y-110730000D01*
X168210000Y-114250000D02*
X168210000Y-112650000D01*
X162080000Y-122900000D02*
X160580000Y-122900000D01*
X162910000Y-123730000D02*
X162080000Y-122900000D01*
X162910000Y-126590000D02*
X162910000Y-123730000D01*
X144200000Y-122860000D02*
X142580000Y-122860000D01*
X145040000Y-123700000D02*
X144200000Y-122860000D01*
X145040000Y-126620000D02*
X145040000Y-123700000D01*
X126640000Y-122590000D02*
X124520000Y-122590000D01*
X127090000Y-123040000D02*
X126640000Y-122590000D01*
X127090000Y-126450000D02*
X127090000Y-123040000D01*
X117270000Y-111160000D02*
X117270000Y-108260000D01*
X119430000Y-112050000D02*
X118160000Y-112050000D01*
X118160000Y-112050000D02*
X117270000Y-111160000D01*
X153409000Y-111619000D02*
X153409000Y-108141000D01*
X155460000Y-112030000D02*
X153820000Y-112030000D01*
X153820000Y-112030000D02*
X153409000Y-111619000D01*
D14*
%TO.N,GND*%
X140190000Y-117500000D02*
X158070000Y-117500000D01*
X158070000Y-117500000D02*
X166330000Y-117500000D01*
X121790000Y-117500000D02*
X140190000Y-117500000D01*
X113920000Y-117500000D02*
X121790000Y-117500000D01*
D12*
%TO.N,SYNC_B*%
X108550000Y-113830000D02*
X108550000Y-114960000D01*
%TO.N,SYNC_A*%
X112250000Y-120030000D02*
X112250000Y-121660000D01*
X112250000Y-121660000D02*
X109805000Y-124105000D01*
X109805000Y-124125000D02*
X112440000Y-126760000D01*
X109805000Y-124105000D02*
X109805000Y-124125000D01*
X112250000Y-120030000D02*
X112250000Y-120610000D01*
X108845000Y-123165000D02*
X108395000Y-122715000D01*
X111100000Y-120030000D02*
X111090000Y-120040000D01*
X112250000Y-120030000D02*
X111100000Y-120030000D01*
X124520000Y-122590000D02*
X125230000Y-122590000D01*
X127090000Y-126450000D02*
X127250000Y-126450000D01*
X124520000Y-123890000D02*
X124540000Y-123910000D01*
X124520000Y-122590000D02*
X124520000Y-123890000D01*
X142580000Y-123870000D02*
X142540000Y-123910000D01*
X142580000Y-122860000D02*
X142580000Y-123870000D01*
X160580000Y-123870000D02*
X160540000Y-123910000D01*
X160580000Y-122900000D02*
X160580000Y-123870000D01*
X170970000Y-111570000D02*
X171795000Y-112395000D01*
X168900000Y-114950000D02*
X168910000Y-114960000D01*
X168900000Y-114940000D02*
X168900000Y-114950000D01*
X168210000Y-114250000D02*
X168900000Y-114940000D01*
X137450000Y-111050000D02*
X137460000Y-111040000D01*
X137450000Y-112040000D02*
X137450000Y-111050000D01*
X119430000Y-111070000D02*
X119460000Y-111040000D01*
X119430000Y-112050000D02*
X119430000Y-111070000D01*
%TO.N,SYNC_B*%
X154330000Y-126450000D02*
X155460000Y-126450000D01*
X154320000Y-126460000D02*
X154330000Y-126450000D01*
X136260000Y-126450000D02*
X136244156Y-126465844D01*
X119460000Y-126450000D02*
X118369182Y-126450000D01*
X137460000Y-126450000D02*
X136260000Y-126450000D01*
X118369182Y-126450000D02*
X118354591Y-126435409D01*
X124540000Y-108500000D02*
X125710000Y-108500000D01*
X171460000Y-121150000D02*
X171460000Y-120050000D01*
X125710000Y-108500000D02*
X125740000Y-108530000D01*
X171460000Y-120050000D02*
X171450000Y-120040000D01*
D14*
%TO.N,GND*%
X113910000Y-117510000D02*
X113920000Y-117500000D01*
X123525000Y-111040000D02*
X123525000Y-115765000D01*
X166330000Y-117500000D02*
X166380000Y-117450000D01*
X111090000Y-115975000D02*
X112395000Y-115975000D01*
X156475000Y-119095000D02*
X158070000Y-117500000D01*
X138475000Y-119215000D02*
X140190000Y-117500000D01*
X159525000Y-116045000D02*
X158070000Y-117500000D01*
X120475000Y-123910000D02*
X120475000Y-118815000D01*
X156475000Y-123910000D02*
X156475000Y-119095000D01*
X112395000Y-115975000D02*
X113920000Y-117500000D01*
X159525000Y-111040000D02*
X159525000Y-116045000D01*
X167855000Y-119025000D02*
X166330000Y-117500000D01*
X120475000Y-118815000D02*
X121790000Y-117500000D01*
X141525000Y-116165000D02*
X140190000Y-117500000D01*
X138475000Y-123910000D02*
X138475000Y-119215000D01*
X168910000Y-119025000D02*
X167855000Y-119025000D01*
X141525000Y-111040000D02*
X141525000Y-116165000D01*
X123525000Y-115765000D02*
X121790000Y-117500000D01*
D12*
%TO.N,SYNC_A*%
X173590000Y-114190000D02*
X171795000Y-112395000D01*
X161040000Y-128460000D02*
X162910000Y-126590000D01*
X108395000Y-122715000D02*
X109805000Y-124125000D01*
X162910000Y-126590000D02*
X167790000Y-126590000D01*
X154470000Y-128460000D02*
X161040000Y-128460000D01*
X116910000Y-126760000D02*
X118590000Y-128440000D01*
X136289131Y-128280000D02*
X134459131Y-126450000D01*
X173590000Y-120790000D02*
X173590000Y-114190000D01*
X127250000Y-126450000D02*
X125260000Y-128440000D01*
X112440000Y-126760000D02*
X116910000Y-126760000D01*
X127250000Y-126450000D02*
X133500000Y-126450000D01*
X143380000Y-128280000D02*
X136289131Y-128280000D01*
X171795000Y-112395000D02*
X170130000Y-110730000D01*
X118590000Y-128440000D02*
X125260000Y-128440000D01*
X152630000Y-126620000D02*
X154470000Y-128460000D01*
X167790000Y-126590000D02*
X173590000Y-120790000D01*
X145040000Y-126620000D02*
X143380000Y-128280000D01*
X145040000Y-126620000D02*
X152630000Y-126620000D01*
X134459131Y-126450000D02*
X133500000Y-126450000D01*
X155460000Y-112030000D02*
X155460000Y-111040000D01*
X155460000Y-112030000D02*
X154580000Y-112030000D01*
%TD*%
%TA.AperFunction,Conductor*%
%TO.N,GND*%
G36*
X122794806Y-125306829D02*
G01*
X122848258Y-125351825D01*
X122868897Y-125418577D01*
X122868528Y-125430075D01*
X122867805Y-125439252D01*
X123428554Y-126000000D01*
X122820565Y-126000000D01*
X122791601Y-125910859D01*
X122791599Y-125910856D01*
X122791599Y-125910854D01*
X122755187Y-125839394D01*
X122691236Y-125713882D01*
X122617112Y-125611858D01*
X122561298Y-125535036D01*
X122561294Y-125535031D01*
X122551100Y-125524837D01*
X122545066Y-125513787D01*
X122535433Y-125505678D01*
X122528637Y-125483700D01*
X122517615Y-125463514D01*
X122518513Y-125450954D01*
X122514794Y-125438926D01*
X122520958Y-125416767D01*
X122522599Y-125393822D01*
X122530144Y-125383742D01*
X122533519Y-125371613D01*
X122550686Y-125356303D01*
X122564471Y-125337889D01*
X122577514Y-125332376D01*
X122585664Y-125325109D01*
X122619383Y-125314683D01*
X122725512Y-125297874D01*
X122794806Y-125306829D01*
G37*
%TD.AperFunction*%
%TA.AperFunction,Conductor*%
G36*
X125851920Y-124734759D02*
G01*
X125886277Y-124795598D01*
X125889500Y-124823684D01*
X125889500Y-125876000D01*
X125869815Y-125943039D01*
X125817011Y-125988794D01*
X125765500Y-126000000D01*
X124722982Y-126000000D01*
X124655943Y-125980315D01*
X124612497Y-125932295D01*
X124554752Y-125818965D01*
X124535745Y-125792806D01*
X124328551Y-126000000D01*
X123621447Y-126000000D01*
X124182192Y-125439254D01*
X124181470Y-125430077D01*
X124195834Y-125361700D01*
X124244885Y-125311942D01*
X124313050Y-125296603D01*
X124324486Y-125297874D01*
X124429458Y-125314500D01*
X124429463Y-125314500D01*
X124650542Y-125314500D01*
X124771843Y-125295287D01*
X124868888Y-125279917D01*
X125079141Y-125211601D01*
X125276118Y-125111236D01*
X125454970Y-124981293D01*
X125611293Y-124824970D01*
X125632633Y-124795598D01*
X125665182Y-124750799D01*
X125720511Y-124708133D01*
X125790125Y-124702154D01*
X125851920Y-124734759D01*
G37*
%TD.AperFunction*%
%TA.AperFunction,Conductor*%
G36*
X140794806Y-125306829D02*
G01*
X140848258Y-125351825D01*
X140868897Y-125418577D01*
X140868528Y-125430075D01*
X140867805Y-125439252D01*
X141428554Y-126000000D01*
X140820565Y-126000000D01*
X140791601Y-125910859D01*
X140791599Y-125910856D01*
X140791599Y-125910854D01*
X140755187Y-125839394D01*
X140691236Y-125713882D01*
X140617112Y-125611858D01*
X140561298Y-125535036D01*
X140561294Y-125535031D01*
X140551100Y-125524837D01*
X140545066Y-125513787D01*
X140535433Y-125505678D01*
X140528637Y-125483700D01*
X140517615Y-125463514D01*
X140518513Y-125450954D01*
X140514794Y-125438926D01*
X140520958Y-125416767D01*
X140522599Y-125393822D01*
X140530144Y-125383742D01*
X140533519Y-125371613D01*
X140550686Y-125356303D01*
X140564471Y-125337889D01*
X140577514Y-125332376D01*
X140585664Y-125325109D01*
X140619383Y-125314683D01*
X140725512Y-125297874D01*
X140794806Y-125306829D01*
G37*
%TD.AperFunction*%
%TA.AperFunction,Conductor*%
G36*
X143801917Y-124803576D02*
G01*
X143836277Y-124864413D01*
X143839500Y-124892503D01*
X143839500Y-125876000D01*
X143819815Y-125943039D01*
X143767011Y-125988794D01*
X143715500Y-126000000D01*
X142722982Y-126000000D01*
X142655943Y-125980315D01*
X142612497Y-125932295D01*
X142554752Y-125818965D01*
X142535745Y-125792806D01*
X142328551Y-126000000D01*
X141621447Y-126000000D01*
X142182192Y-125439254D01*
X142181470Y-125430077D01*
X142195834Y-125361700D01*
X142244885Y-125311942D01*
X142313050Y-125296603D01*
X142324486Y-125297874D01*
X142429458Y-125314500D01*
X142429463Y-125314500D01*
X142650542Y-125314500D01*
X142771843Y-125295287D01*
X142868888Y-125279917D01*
X143079141Y-125211601D01*
X143276118Y-125111236D01*
X143454970Y-124981293D01*
X143611293Y-124824970D01*
X143615179Y-124819620D01*
X143670508Y-124776953D01*
X143740121Y-124770972D01*
X143801917Y-124803576D01*
G37*
%TD.AperFunction*%
%TA.AperFunction,Conductor*%
G36*
X158794806Y-125306829D02*
G01*
X158848258Y-125351825D01*
X158868897Y-125418577D01*
X158868528Y-125430075D01*
X158867805Y-125439252D01*
X159428554Y-126000000D01*
X158820565Y-126000000D01*
X158791601Y-125910859D01*
X158791599Y-125910856D01*
X158791599Y-125910854D01*
X158755187Y-125839394D01*
X158691236Y-125713882D01*
X158617112Y-125611858D01*
X158561298Y-125535036D01*
X158561294Y-125535031D01*
X158551100Y-125524837D01*
X158545066Y-125513787D01*
X158535433Y-125505678D01*
X158528637Y-125483700D01*
X158517615Y-125463514D01*
X158518513Y-125450954D01*
X158514794Y-125438926D01*
X158520958Y-125416767D01*
X158522599Y-125393822D01*
X158530144Y-125383742D01*
X158533519Y-125371613D01*
X158550686Y-125356303D01*
X158564471Y-125337889D01*
X158577514Y-125332376D01*
X158585664Y-125325109D01*
X158619383Y-125314683D01*
X158725512Y-125297874D01*
X158794806Y-125306829D01*
G37*
%TD.AperFunction*%
%TA.AperFunction,Conductor*%
G36*
X161628834Y-124909943D02*
G01*
X161684767Y-124951815D01*
X161709184Y-125017279D01*
X161709500Y-125026125D01*
X161709500Y-125876000D01*
X161689815Y-125943039D01*
X161637011Y-125988794D01*
X161585500Y-126000000D01*
X160722982Y-126000000D01*
X160655943Y-125980315D01*
X160612497Y-125932295D01*
X160554752Y-125818965D01*
X160535745Y-125792806D01*
X160328551Y-126000000D01*
X159621447Y-126000000D01*
X160182192Y-125439254D01*
X160181470Y-125430077D01*
X160195834Y-125361700D01*
X160244885Y-125311942D01*
X160313050Y-125296603D01*
X160324486Y-125297874D01*
X160429458Y-125314500D01*
X160429463Y-125314500D01*
X160650542Y-125314500D01*
X160771843Y-125295287D01*
X160868888Y-125279917D01*
X161079141Y-125211601D01*
X161276118Y-125111236D01*
X161454970Y-124981293D01*
X161497819Y-124938444D01*
X161559142Y-124904959D01*
X161628834Y-124909943D01*
G37*
%TD.AperFunction*%
%TA.AperFunction,Conductor*%
G36*
X126847779Y-109503123D02*
G01*
X126857670Y-109502132D01*
X126884422Y-109511251D01*
X126884659Y-109510680D01*
X126889157Y-109512543D01*
X126889165Y-109512545D01*
X126889168Y-109512547D01*
X126991100Y-109545667D01*
X127068881Y-109570940D01*
X127255514Y-109600500D01*
X127255519Y-109600500D01*
X127444482Y-109600500D01*
X133375500Y-109600500D01*
X133442539Y-109620185D01*
X133488294Y-109672989D01*
X133499500Y-109724500D01*
X133499500Y-111134486D01*
X133529059Y-111321118D01*
X133587454Y-111500836D01*
X133627353Y-111579141D01*
X133673240Y-111669199D01*
X133784310Y-111822074D01*
X134917927Y-112955690D01*
X135070801Y-113066760D01*
X135150347Y-113107290D01*
X135239163Y-113152545D01*
X135239165Y-113152545D01*
X135239168Y-113152547D01*
X135269945Y-113162547D01*
X135418881Y-113210940D01*
X135605514Y-113240500D01*
X135605519Y-113240500D01*
X137544486Y-113240500D01*
X137731118Y-113210940D01*
X137910832Y-113152547D01*
X138079199Y-113066760D01*
X138232073Y-112955690D01*
X138365690Y-112822073D01*
X138476760Y-112669199D01*
X138562547Y-112500832D01*
X138617227Y-112332544D01*
X138656665Y-112274870D01*
X138721024Y-112247672D01*
X138789870Y-112259587D01*
X138791407Y-112260356D01*
X138950859Y-112341601D01*
X139161112Y-112409917D01*
X139242993Y-112422885D01*
X139379458Y-112444500D01*
X139379463Y-112444500D01*
X139600542Y-112444500D01*
X139721843Y-112425287D01*
X139818888Y-112409917D01*
X140029141Y-112341601D01*
X140226118Y-112241236D01*
X140404970Y-112111293D01*
X140561293Y-111954970D01*
X140570661Y-111942076D01*
X140578999Y-111930601D01*
X140639653Y-111847114D01*
X140691236Y-111776118D01*
X140791601Y-111579141D01*
X140859074Y-111371482D01*
X140889323Y-111322120D01*
X141082861Y-111128582D01*
X141105667Y-111213694D01*
X141164910Y-111316306D01*
X141248694Y-111400090D01*
X141351306Y-111459333D01*
X141436414Y-111482137D01*
X140867806Y-112050745D01*
X140867806Y-112050746D01*
X140893966Y-112069752D01*
X141062821Y-112155789D01*
X141243062Y-112214354D01*
X141430238Y-112244000D01*
X141619762Y-112244000D01*
X141806937Y-112214354D01*
X141987182Y-112155788D01*
X141987184Y-112155787D01*
X142156027Y-112069756D01*
X142156043Y-112069746D01*
X142182192Y-112050746D01*
X142182193Y-112050745D01*
X141613585Y-111482137D01*
X141698694Y-111459333D01*
X141801306Y-111400090D01*
X141885090Y-111316306D01*
X141944333Y-111213694D01*
X141967137Y-111128585D01*
X142535745Y-111697193D01*
X142535746Y-111697192D01*
X142554746Y-111671043D01*
X142554756Y-111671027D01*
X142640787Y-111502184D01*
X142640788Y-111502182D01*
X142699354Y-111321937D01*
X142729000Y-111134762D01*
X142729000Y-110945237D01*
X142699354Y-110758062D01*
X142640789Y-110577821D01*
X142554752Y-110408966D01*
X142535745Y-110382806D01*
X141967137Y-110951414D01*
X141944333Y-110866306D01*
X141885090Y-110763694D01*
X141801306Y-110679910D01*
X141698694Y-110620667D01*
X141613584Y-110597861D01*
X142182192Y-110029254D01*
X142181470Y-110020077D01*
X142195834Y-109951700D01*
X142244885Y-109901942D01*
X142313050Y-109886603D01*
X142324486Y-109887874D01*
X142429458Y-109904500D01*
X142429463Y-109904500D01*
X142650542Y-109904500D01*
X142771843Y-109885287D01*
X142868888Y-109869917D01*
X143079141Y-109801601D01*
X143251038Y-109714015D01*
X143307333Y-109700500D01*
X143774486Y-109700500D01*
X143961118Y-109670940D01*
X143963756Y-109670083D01*
X144140832Y-109612547D01*
X144309199Y-109526760D01*
X144313433Y-109523684D01*
X144379239Y-109500202D01*
X144386321Y-109500000D01*
X145094290Y-109500000D01*
X145104013Y-109500382D01*
X145105513Y-109500500D01*
X145105519Y-109500500D01*
X145294482Y-109500500D01*
X152084500Y-109500500D01*
X152151539Y-109520185D01*
X152197294Y-109572989D01*
X152208500Y-109624500D01*
X152208500Y-111713486D01*
X152238059Y-111900118D01*
X152296454Y-112079836D01*
X152381971Y-112247672D01*
X152382240Y-112248199D01*
X152493310Y-112401074D01*
X153037927Y-112945690D01*
X153190801Y-113056760D01*
X153270347Y-113097290D01*
X153359163Y-113142545D01*
X153359165Y-113142545D01*
X153359168Y-113142547D01*
X153455497Y-113173846D01*
X153538881Y-113200940D01*
X153725514Y-113230500D01*
X153725519Y-113230500D01*
X155554486Y-113230500D01*
X155741118Y-113200940D01*
X155920832Y-113142547D01*
X156089199Y-113056760D01*
X156242073Y-112945690D01*
X156375690Y-112812073D01*
X156486760Y-112659199D01*
X156572547Y-112490832D01*
X156623019Y-112335495D01*
X156662457Y-112277821D01*
X156726816Y-112250623D01*
X156795662Y-112262538D01*
X156797180Y-112263297D01*
X156950859Y-112341601D01*
X157161112Y-112409917D01*
X157242993Y-112422885D01*
X157379458Y-112444500D01*
X157379463Y-112444500D01*
X157600542Y-112444500D01*
X157721843Y-112425287D01*
X157818888Y-112409917D01*
X158029141Y-112341601D01*
X158226118Y-112241236D01*
X158404970Y-112111293D01*
X158561293Y-111954970D01*
X158570661Y-111942076D01*
X158578999Y-111930601D01*
X158639653Y-111847114D01*
X158691236Y-111776118D01*
X158791601Y-111579141D01*
X158859074Y-111371482D01*
X158889323Y-111322120D01*
X159082861Y-111128582D01*
X159105667Y-111213694D01*
X159164910Y-111316306D01*
X159248694Y-111400090D01*
X159351306Y-111459333D01*
X159436414Y-111482137D01*
X158867806Y-112050745D01*
X158867806Y-112050746D01*
X158893966Y-112069752D01*
X159062821Y-112155789D01*
X159243062Y-112214354D01*
X159430238Y-112244000D01*
X159619762Y-112244000D01*
X159806937Y-112214354D01*
X159987182Y-112155788D01*
X159987184Y-112155787D01*
X160156027Y-112069756D01*
X160156043Y-112069746D01*
X160182192Y-112050746D01*
X160182193Y-112050745D01*
X159613585Y-111482137D01*
X159698694Y-111459333D01*
X159801306Y-111400090D01*
X159885090Y-111316306D01*
X159944333Y-111213694D01*
X159967138Y-111128585D01*
X160535745Y-111697193D01*
X160535746Y-111697192D01*
X160554746Y-111671043D01*
X160554756Y-111671027D01*
X160640787Y-111502184D01*
X160640788Y-111502182D01*
X160699354Y-111321937D01*
X160729000Y-111134762D01*
X160729000Y-110945237D01*
X160699354Y-110758062D01*
X160640789Y-110577821D01*
X160554752Y-110408966D01*
X160535745Y-110382806D01*
X159967137Y-110951414D01*
X159944333Y-110866306D01*
X159885090Y-110763694D01*
X159801306Y-110679910D01*
X159698694Y-110620667D01*
X159613584Y-110597861D01*
X160182192Y-110029254D01*
X160181470Y-110020077D01*
X160195834Y-109951700D01*
X160244885Y-109901942D01*
X160313050Y-109886603D01*
X160324486Y-109887874D01*
X160429458Y-109904500D01*
X160429463Y-109904500D01*
X160650542Y-109904500D01*
X160771843Y-109885287D01*
X160868888Y-109869917D01*
X161079141Y-109801601D01*
X161251038Y-109714015D01*
X161307333Y-109700500D01*
X161764486Y-109700500D01*
X161951118Y-109670940D01*
X161953756Y-109670083D01*
X162130832Y-109612547D01*
X162299199Y-109526760D01*
X162303433Y-109523684D01*
X162323479Y-109516530D01*
X162341386Y-109505023D01*
X162365407Y-109501569D01*
X162369239Y-109500202D01*
X162376321Y-109500000D01*
X162600875Y-109500000D01*
X162667914Y-109519685D01*
X162688555Y-109536318D01*
X162727927Y-109575690D01*
X162880801Y-109686760D01*
X162916998Y-109705203D01*
X163049163Y-109772545D01*
X163049165Y-109772545D01*
X163049168Y-109772547D01*
X163145497Y-109803846D01*
X163228881Y-109830940D01*
X163415514Y-109860500D01*
X163415519Y-109860500D01*
X163604482Y-109860500D01*
X167511374Y-109860500D01*
X167578413Y-109880185D01*
X167599055Y-109896819D01*
X168344555Y-110642319D01*
X168378040Y-110703642D01*
X168373056Y-110773334D01*
X168344555Y-110817681D01*
X167294310Y-111867925D01*
X167270921Y-111900118D01*
X167222886Y-111966233D01*
X167203063Y-111993517D01*
X167183240Y-112020800D01*
X167097454Y-112189163D01*
X167039059Y-112368881D01*
X167009500Y-112555513D01*
X167009500Y-114344486D01*
X167039059Y-114531118D01*
X167097454Y-114710836D01*
X167168089Y-114849463D01*
X167183240Y-114879199D01*
X167294310Y-115032074D01*
X167294312Y-115032076D01*
X167513718Y-115251482D01*
X167543968Y-115300844D01*
X167608400Y-115499145D01*
X167708766Y-115696121D01*
X167838701Y-115874963D01*
X167838705Y-115874968D01*
X167851056Y-115887319D01*
X167884541Y-115948642D01*
X167879557Y-116018334D01*
X167851056Y-116062681D01*
X167838705Y-116075031D01*
X167838701Y-116075036D01*
X167708766Y-116253878D01*
X167608400Y-116450856D01*
X167540082Y-116661115D01*
X167505500Y-116879457D01*
X167505500Y-117100542D01*
X167540082Y-117318884D01*
X167540083Y-117318888D01*
X167608399Y-117529141D01*
X167685832Y-117681112D01*
X167708766Y-117726121D01*
X167838701Y-117904963D01*
X167838705Y-117904968D01*
X167995031Y-118061294D01*
X167995036Y-118061298D01*
X168151031Y-118174634D01*
X168173882Y-118191236D01*
X168299394Y-118255187D01*
X168370854Y-118291599D01*
X168370856Y-118291599D01*
X168370859Y-118291601D01*
X168578515Y-118359073D01*
X168627877Y-118389323D01*
X168821415Y-118582861D01*
X168736306Y-118605667D01*
X168633694Y-118664910D01*
X168549910Y-118748694D01*
X168490667Y-118851306D01*
X168467861Y-118936414D01*
X167899253Y-118367806D01*
X167880245Y-118393969D01*
X167794210Y-118562821D01*
X167735645Y-118743062D01*
X167706000Y-118930237D01*
X167706000Y-119119762D01*
X167735645Y-119306937D01*
X167794210Y-119487178D01*
X167880246Y-119656033D01*
X167899253Y-119682192D01*
X167899253Y-119682193D01*
X168467861Y-119113584D01*
X168490667Y-119198694D01*
X168549910Y-119301306D01*
X168633694Y-119385090D01*
X168736306Y-119444333D01*
X168821413Y-119467137D01*
X168252806Y-120035745D01*
X168252806Y-120035746D01*
X168278966Y-120054752D01*
X168447821Y-120140789D01*
X168628062Y-120199354D01*
X168815238Y-120229000D01*
X168876000Y-120229000D01*
X168943039Y-120248685D01*
X168988794Y-120301489D01*
X169000000Y-120353000D01*
X169000000Y-123630874D01*
X168980315Y-123697913D01*
X168963681Y-123718555D01*
X167329055Y-125353181D01*
X167267732Y-125386666D01*
X167241374Y-125389500D01*
X164234500Y-125389500D01*
X164167461Y-125369815D01*
X164121706Y-125317011D01*
X164110500Y-125265500D01*
X164110500Y-123635519D01*
X164105748Y-123605517D01*
X164105748Y-123605516D01*
X164080940Y-123448882D01*
X164080940Y-123448881D01*
X164046926Y-123344199D01*
X164022547Y-123269168D01*
X164022545Y-123269165D01*
X164022545Y-123269163D01*
X163974990Y-123175832D01*
X163936760Y-123100801D01*
X163825690Y-122947926D01*
X162862074Y-121984310D01*
X162709199Y-121873240D01*
X162540836Y-121787454D01*
X162361118Y-121729059D01*
X162174486Y-121699500D01*
X162174481Y-121699500D01*
X160674481Y-121699500D01*
X160485519Y-121699500D01*
X160485514Y-121699500D01*
X160298881Y-121729059D01*
X160119163Y-121787454D01*
X159950800Y-121873240D01*
X159868651Y-121932926D01*
X159797927Y-121984310D01*
X159797925Y-121984312D01*
X159797924Y-121984312D01*
X159664312Y-122117924D01*
X159664312Y-122117925D01*
X159664310Y-122117927D01*
X159662198Y-122120834D01*
X159553240Y-122270800D01*
X159467454Y-122439163D01*
X159409059Y-122618881D01*
X159408794Y-122619989D01*
X159408577Y-122620366D01*
X159407554Y-122623516D01*
X159406892Y-122623301D01*
X159374005Y-122680582D01*
X159311980Y-122712748D01*
X159242411Y-122706275D01*
X159231924Y-122701531D01*
X159049143Y-122608400D01*
X159049142Y-122608399D01*
X159049141Y-122608399D01*
X158838888Y-122540083D01*
X158838886Y-122540082D01*
X158838884Y-122540082D01*
X158620542Y-122505500D01*
X158620537Y-122505500D01*
X158399463Y-122505500D01*
X158399458Y-122505500D01*
X158181115Y-122540082D01*
X157970856Y-122608400D01*
X157773878Y-122708766D01*
X157595036Y-122838701D01*
X157595031Y-122838705D01*
X157438705Y-122995031D01*
X157438701Y-122995036D01*
X157308766Y-123173878D01*
X157208400Y-123370854D01*
X157140928Y-123578512D01*
X157110678Y-123627874D01*
X156917137Y-123821414D01*
X156894333Y-123736306D01*
X156835090Y-123633694D01*
X156751306Y-123549910D01*
X156648694Y-123490667D01*
X156563584Y-123467861D01*
X157132193Y-122899253D01*
X157106033Y-122880246D01*
X156937178Y-122794210D01*
X156756937Y-122735645D01*
X156569762Y-122706000D01*
X156380238Y-122706000D01*
X156193062Y-122735645D01*
X156012821Y-122794210D01*
X155843969Y-122880245D01*
X155817806Y-122899253D01*
X156386415Y-123467861D01*
X156301306Y-123490667D01*
X156198694Y-123549910D01*
X156114910Y-123633694D01*
X156055667Y-123736306D01*
X156032861Y-123821414D01*
X155464253Y-123252806D01*
X155445245Y-123278969D01*
X155359210Y-123447821D01*
X155300645Y-123628062D01*
X155271000Y-123815237D01*
X155271000Y-124004762D01*
X155300645Y-124191937D01*
X155359210Y-124372178D01*
X155445246Y-124541033D01*
X155464253Y-124567192D01*
X155464253Y-124567193D01*
X156032861Y-123998584D01*
X156055667Y-124083694D01*
X156114910Y-124186306D01*
X156198694Y-124270090D01*
X156301306Y-124329333D01*
X156386414Y-124352137D01*
X155817805Y-124920746D01*
X155818528Y-124929926D01*
X155804163Y-124998303D01*
X155755110Y-125048058D01*
X155686945Y-125063396D01*
X155675513Y-125062125D01*
X155570544Y-125045500D01*
X155570537Y-125045500D01*
X155349463Y-125045500D01*
X155349458Y-125045500D01*
X155131115Y-125080082D01*
X154920856Y-125148400D01*
X154748962Y-125235985D01*
X154692667Y-125249500D01*
X154235513Y-125249500D01*
X154048885Y-125279059D01*
X153869165Y-125337454D01*
X153700800Y-125423240D01*
X153547927Y-125534309D01*
X153467182Y-125615054D01*
X153405858Y-125648538D01*
X153336167Y-125643554D01*
X153306617Y-125627691D01*
X153259199Y-125593240D01*
X153250993Y-125589059D01*
X153090836Y-125507454D01*
X152911118Y-125449059D01*
X152724486Y-125419500D01*
X152724481Y-125419500D01*
X146364500Y-125419500D01*
X146297461Y-125399815D01*
X146251706Y-125347011D01*
X146240500Y-125295500D01*
X146240500Y-123605513D01*
X146210940Y-123418881D01*
X146165479Y-123278969D01*
X146152547Y-123239168D01*
X146152545Y-123239165D01*
X146152545Y-123239163D01*
X146107290Y-123150347D01*
X146066760Y-123070801D01*
X146038894Y-123032447D01*
X146038894Y-123032446D01*
X146038891Y-123032443D01*
X146029415Y-123019400D01*
X146029414Y-123019399D01*
X145955690Y-122917926D01*
X144982074Y-121944310D01*
X144829199Y-121833240D01*
X144660836Y-121747454D01*
X144481118Y-121689059D01*
X144294486Y-121659500D01*
X144294481Y-121659500D01*
X142674481Y-121659500D01*
X142485519Y-121659500D01*
X142485514Y-121659500D01*
X142298881Y-121689059D01*
X142119163Y-121747454D01*
X141950800Y-121833240D01*
X141895746Y-121873240D01*
X141797927Y-121944310D01*
X141797925Y-121944312D01*
X141797924Y-121944312D01*
X141664312Y-122077924D01*
X141664312Y-122077925D01*
X141664310Y-122077927D01*
X141635250Y-122117925D01*
X141553240Y-122230800D01*
X141467454Y-122399163D01*
X141409060Y-122578878D01*
X141404555Y-122607322D01*
X141374623Y-122670455D01*
X141315311Y-122707385D01*
X141245448Y-122706385D01*
X141225787Y-122698405D01*
X141170932Y-122670455D01*
X141049141Y-122608399D01*
X140838888Y-122540083D01*
X140838886Y-122540082D01*
X140838884Y-122540082D01*
X140620542Y-122505500D01*
X140620537Y-122505500D01*
X140399463Y-122505500D01*
X140399458Y-122505500D01*
X140181115Y-122540082D01*
X139970856Y-122608400D01*
X139773878Y-122708766D01*
X139595036Y-122838701D01*
X139595031Y-122838705D01*
X139438705Y-122995031D01*
X139438701Y-122995036D01*
X139308766Y-123173878D01*
X139208400Y-123370854D01*
X139140928Y-123578512D01*
X139110678Y-123627874D01*
X138917137Y-123821414D01*
X138894333Y-123736306D01*
X138835090Y-123633694D01*
X138751306Y-123549910D01*
X138648694Y-123490667D01*
X138563584Y-123467861D01*
X139132193Y-122899253D01*
X139106033Y-122880246D01*
X138937178Y-122794210D01*
X138756937Y-122735645D01*
X138569762Y-122706000D01*
X138380238Y-122706000D01*
X138193062Y-122735645D01*
X138012821Y-122794210D01*
X137843969Y-122880245D01*
X137817806Y-122899253D01*
X138386415Y-123467861D01*
X138301306Y-123490667D01*
X138198694Y-123549910D01*
X138114910Y-123633694D01*
X138055667Y-123736306D01*
X138032861Y-123821414D01*
X137464253Y-123252806D01*
X137445245Y-123278969D01*
X137359210Y-123447821D01*
X137300645Y-123628062D01*
X137271000Y-123815237D01*
X137271000Y-124004762D01*
X137300645Y-124191937D01*
X137359210Y-124372178D01*
X137445246Y-124541033D01*
X137464253Y-124567192D01*
X137464253Y-124567193D01*
X138032861Y-123998584D01*
X138055667Y-124083694D01*
X138114910Y-124186306D01*
X138198694Y-124270090D01*
X138301306Y-124329333D01*
X138386414Y-124352137D01*
X137817805Y-124920746D01*
X137818528Y-124929926D01*
X137804163Y-124998303D01*
X137755110Y-125048058D01*
X137686945Y-125063396D01*
X137675513Y-125062125D01*
X137570544Y-125045500D01*
X137570537Y-125045500D01*
X137349463Y-125045500D01*
X137349458Y-125045500D01*
X137131115Y-125080082D01*
X136920856Y-125148400D01*
X136748962Y-125235985D01*
X136692667Y-125249500D01*
X136165514Y-125249500D01*
X135978881Y-125279059D01*
X135799163Y-125337454D01*
X135630800Y-125423240D01*
X135477924Y-125534312D01*
X135447245Y-125564991D01*
X135385921Y-125598475D01*
X135316230Y-125593489D01*
X135271884Y-125564989D01*
X135241207Y-125534312D01*
X135241205Y-125534310D01*
X135088330Y-125423240D01*
X135075626Y-125416767D01*
X134919967Y-125337454D01*
X134740249Y-125279059D01*
X134553617Y-125249500D01*
X134553612Y-125249500D01*
X133594481Y-125249500D01*
X128414500Y-125249500D01*
X128347461Y-125229815D01*
X128301706Y-125177011D01*
X128290500Y-125125500D01*
X128290500Y-122955262D01*
X128290500Y-122945519D01*
X128277468Y-122863240D01*
X128260940Y-122758882D01*
X128202547Y-122579168D01*
X128202545Y-122579165D01*
X128202545Y-122579163D01*
X128132694Y-122442074D01*
X128116760Y-122410801D01*
X128005690Y-122257926D01*
X127422074Y-121674310D01*
X127269199Y-121563240D01*
X127231556Y-121544060D01*
X127100836Y-121477454D01*
X126921118Y-121419059D01*
X126734486Y-121389500D01*
X126734481Y-121389500D01*
X125324481Y-121389500D01*
X124614481Y-121389500D01*
X124425519Y-121389500D01*
X124425514Y-121389500D01*
X124238881Y-121419059D01*
X124059163Y-121477454D01*
X123890800Y-121563240D01*
X123878643Y-121572073D01*
X123737927Y-121674310D01*
X123737925Y-121674312D01*
X123737924Y-121674312D01*
X123604312Y-121807924D01*
X123604312Y-121807925D01*
X123604310Y-121807927D01*
X123585919Y-121833240D01*
X123493240Y-121960800D01*
X123407454Y-122129163D01*
X123349059Y-122308881D01*
X123319500Y-122495513D01*
X123319500Y-122543803D01*
X123299815Y-122610842D01*
X123247011Y-122656597D01*
X123177853Y-122666541D01*
X123139206Y-122654288D01*
X123049146Y-122608401D01*
X123049143Y-122608400D01*
X123049141Y-122608399D01*
X122838888Y-122540083D01*
X122838886Y-122540082D01*
X122838884Y-122540082D01*
X122620542Y-122505500D01*
X122620537Y-122505500D01*
X122399463Y-122505500D01*
X122399458Y-122505500D01*
X122181115Y-122540082D01*
X121970856Y-122608400D01*
X121773878Y-122708766D01*
X121595036Y-122838701D01*
X121595031Y-122838705D01*
X121438705Y-122995031D01*
X121438701Y-122995036D01*
X121308766Y-123173878D01*
X121208400Y-123370854D01*
X121140928Y-123578512D01*
X121110678Y-123627874D01*
X120917137Y-123821414D01*
X120894333Y-123736306D01*
X120835090Y-123633694D01*
X120751306Y-123549910D01*
X120648694Y-123490667D01*
X120563584Y-123467861D01*
X121132193Y-122899253D01*
X121106033Y-122880246D01*
X120937178Y-122794210D01*
X120756937Y-122735645D01*
X120569762Y-122706000D01*
X120380238Y-122706000D01*
X120193062Y-122735645D01*
X120012821Y-122794210D01*
X119843969Y-122880245D01*
X119817806Y-122899253D01*
X120386415Y-123467861D01*
X120301306Y-123490667D01*
X120198694Y-123549910D01*
X120114910Y-123633694D01*
X120055667Y-123736306D01*
X120032861Y-123821414D01*
X119464253Y-123252806D01*
X119445245Y-123278969D01*
X119359210Y-123447821D01*
X119300645Y-123628062D01*
X119271000Y-123815237D01*
X119271000Y-124004762D01*
X119300645Y-124191937D01*
X119359210Y-124372178D01*
X119445246Y-124541033D01*
X119464253Y-124567192D01*
X119464253Y-124567193D01*
X120032861Y-123998584D01*
X120055667Y-124083694D01*
X120114910Y-124186306D01*
X120198694Y-124270090D01*
X120301306Y-124329333D01*
X120386414Y-124352137D01*
X119817805Y-124920746D01*
X119818528Y-124929926D01*
X119804163Y-124998303D01*
X119755110Y-125048058D01*
X119686945Y-125063396D01*
X119675513Y-125062125D01*
X119570544Y-125045500D01*
X119570537Y-125045500D01*
X119349463Y-125045500D01*
X119349458Y-125045500D01*
X119131115Y-125080082D01*
X118920856Y-125148400D01*
X118748962Y-125235985D01*
X118735958Y-125239106D01*
X118727602Y-125244477D01*
X118692667Y-125249500D01*
X118550954Y-125249500D01*
X118531556Y-125247973D01*
X118509483Y-125244477D01*
X118449076Y-125234909D01*
X118449072Y-125234909D01*
X118260110Y-125234909D01*
X118260105Y-125234909D01*
X118073472Y-125264468D01*
X117893754Y-125322863D01*
X117725391Y-125408649D01*
X117572518Y-125519718D01*
X117480378Y-125611858D01*
X117419054Y-125645342D01*
X117354378Y-125642107D01*
X117310008Y-125627690D01*
X117191118Y-125589059D01*
X117004486Y-125559500D01*
X117004481Y-125559500D01*
X112988625Y-125559500D01*
X112921586Y-125539815D01*
X112900944Y-125523181D01*
X111580444Y-124202681D01*
X111546959Y-124141358D01*
X111551943Y-124071666D01*
X111580444Y-124027319D01*
X111885073Y-123722690D01*
X112748933Y-122858831D01*
X112953476Y-122654288D01*
X113165690Y-122442074D01*
X113276760Y-122289199D01*
X113362547Y-122120832D01*
X113420940Y-121941118D01*
X113438026Y-121833240D01*
X113450500Y-121754487D01*
X113450500Y-119935513D01*
X113420940Y-119748881D01*
X113362545Y-119569163D01*
X113314566Y-119475000D01*
X113276760Y-119400801D01*
X113165690Y-119247927D01*
X113032073Y-119114310D01*
X112879199Y-119003240D01*
X112710836Y-118917454D01*
X112531118Y-118859059D01*
X112424469Y-118842168D01*
X112361334Y-118812239D01*
X112324403Y-118752927D01*
X112325401Y-118683064D01*
X112333380Y-118663404D01*
X112391601Y-118549141D01*
X112459917Y-118338888D01*
X112483303Y-118191233D01*
X112494500Y-118120542D01*
X112494500Y-117899457D01*
X112471444Y-117753895D01*
X112459917Y-117681112D01*
X112391601Y-117470859D01*
X112291236Y-117273882D01*
X112165298Y-117100542D01*
X112161298Y-117095036D01*
X112161294Y-117095031D01*
X112004968Y-116938705D01*
X112004963Y-116938701D01*
X111826121Y-116808766D01*
X111826120Y-116808765D01*
X111826118Y-116808764D01*
X111764605Y-116777422D01*
X111629145Y-116708400D01*
X111483608Y-116661112D01*
X111421484Y-116640926D01*
X111372123Y-116610677D01*
X111178584Y-116417138D01*
X111263694Y-116394333D01*
X111366306Y-116335090D01*
X111450090Y-116251306D01*
X111509333Y-116148694D01*
X111532137Y-116063585D01*
X112100745Y-116632193D01*
X112100746Y-116632192D01*
X112119746Y-116606043D01*
X112119756Y-116606027D01*
X112205787Y-116437184D01*
X112205788Y-116437182D01*
X112264354Y-116256937D01*
X112294000Y-116069762D01*
X112294000Y-115880237D01*
X112264354Y-115693062D01*
X112205789Y-115512821D01*
X112119752Y-115343966D01*
X112100745Y-115317806D01*
X111532137Y-115886414D01*
X111509333Y-115801306D01*
X111450090Y-115698694D01*
X111366306Y-115614910D01*
X111263694Y-115555667D01*
X111178584Y-115532861D01*
X111747193Y-114964253D01*
X111721033Y-114945246D01*
X111552178Y-114859210D01*
X111371937Y-114800645D01*
X111184762Y-114771000D01*
X111124000Y-114771000D01*
X111056961Y-114751315D01*
X111011206Y-114698511D01*
X111000000Y-114647000D01*
X111000000Y-111299126D01*
X111019685Y-111232087D01*
X111036319Y-111211445D01*
X112610945Y-109636819D01*
X112672268Y-109603334D01*
X112698626Y-109600500D01*
X115945500Y-109600500D01*
X116012539Y-109620185D01*
X116058294Y-109672989D01*
X116069500Y-109724500D01*
X116069500Y-111254486D01*
X116099059Y-111441118D01*
X116157454Y-111620836D01*
X116204662Y-111713486D01*
X116243240Y-111789199D01*
X116354310Y-111942074D01*
X117377926Y-112965690D01*
X117530801Y-113076760D01*
X117699168Y-113162547D01*
X117878882Y-113220940D01*
X117939242Y-113230500D01*
X118065513Y-113250500D01*
X118065518Y-113250500D01*
X119524486Y-113250500D01*
X119711118Y-113220940D01*
X119890832Y-113162547D01*
X120059199Y-113076760D01*
X120212073Y-112965690D01*
X120345690Y-112832073D01*
X120456760Y-112679199D01*
X120542547Y-112510832D01*
X120597534Y-112341601D01*
X120602446Y-112326484D01*
X120604394Y-112327116D01*
X120634875Y-112273985D01*
X120696890Y-112241799D01*
X120766461Y-112248249D01*
X120776984Y-112253007D01*
X120950859Y-112341601D01*
X121161112Y-112409917D01*
X121242993Y-112422885D01*
X121379458Y-112444500D01*
X121379463Y-112444500D01*
X121600542Y-112444500D01*
X121721843Y-112425287D01*
X121818888Y-112409917D01*
X122029141Y-112341601D01*
X122226118Y-112241236D01*
X122404970Y-112111293D01*
X122561293Y-111954970D01*
X122570661Y-111942076D01*
X122578999Y-111930601D01*
X122639653Y-111847114D01*
X122691236Y-111776118D01*
X122791601Y-111579141D01*
X122859074Y-111371482D01*
X122889323Y-111322120D01*
X123082861Y-111128582D01*
X123105667Y-111213694D01*
X123164910Y-111316306D01*
X123248694Y-111400090D01*
X123351306Y-111459333D01*
X123436414Y-111482137D01*
X122867806Y-112050745D01*
X122867806Y-112050746D01*
X122893966Y-112069752D01*
X123062821Y-112155789D01*
X123243062Y-112214354D01*
X123430238Y-112244000D01*
X123619762Y-112244000D01*
X123806937Y-112214354D01*
X123987182Y-112155788D01*
X123987184Y-112155787D01*
X124156027Y-112069756D01*
X124156043Y-112069746D01*
X124182192Y-112050746D01*
X124182193Y-112050745D01*
X123613585Y-111482137D01*
X123698694Y-111459333D01*
X123801306Y-111400090D01*
X123885090Y-111316306D01*
X123944333Y-111213694D01*
X123967137Y-111128585D01*
X124535745Y-111697193D01*
X124535746Y-111697192D01*
X124554746Y-111671043D01*
X124554756Y-111671027D01*
X124640787Y-111502184D01*
X124640788Y-111502182D01*
X124699354Y-111321937D01*
X124729000Y-111134762D01*
X124729000Y-110945237D01*
X124699354Y-110758062D01*
X124640789Y-110577821D01*
X124554752Y-110408966D01*
X124535745Y-110382806D01*
X123967137Y-110951414D01*
X123944333Y-110866306D01*
X123885090Y-110763694D01*
X123801306Y-110679910D01*
X123698694Y-110620667D01*
X123613584Y-110597861D01*
X124182192Y-110029254D01*
X124181470Y-110020077D01*
X124195834Y-109951700D01*
X124244885Y-109901942D01*
X124313050Y-109886603D01*
X124324486Y-109887874D01*
X124429458Y-109904500D01*
X124429463Y-109904500D01*
X124650542Y-109904500D01*
X124771843Y-109885287D01*
X124868888Y-109869917D01*
X125079141Y-109801601D01*
X125251038Y-109714015D01*
X125264041Y-109710893D01*
X125272398Y-109705523D01*
X125307333Y-109700500D01*
X125446346Y-109700500D01*
X125465743Y-109702027D01*
X125645512Y-109730498D01*
X125645513Y-109730499D01*
X125645518Y-109730499D01*
X125834486Y-109730499D01*
X125938562Y-109714015D01*
X126021118Y-109700940D01*
X126200832Y-109642547D01*
X126369199Y-109556760D01*
X126390725Y-109541120D01*
X126414728Y-109523682D01*
X126480534Y-109500202D01*
X126487613Y-109500000D01*
X126834773Y-109500000D01*
X126847779Y-109503123D01*
G37*
%TD.AperFunction*%
%TA.AperFunction,Conductor*%
G36*
X121110677Y-124192122D02*
G01*
X121140927Y-124241485D01*
X121208400Y-124449145D01*
X121308766Y-124646121D01*
X121438701Y-124824963D01*
X121438705Y-124824968D01*
X121448899Y-124835162D01*
X121454932Y-124846211D01*
X121464566Y-124854321D01*
X121471361Y-124876298D01*
X121482384Y-124896485D01*
X121481485Y-124909044D01*
X121485205Y-124921073D01*
X121479040Y-124943231D01*
X121477400Y-124966177D01*
X121469854Y-124976256D01*
X121466480Y-124988386D01*
X121449312Y-125003695D01*
X121435528Y-125022110D01*
X121422484Y-125027622D01*
X121414335Y-125034890D01*
X121380615Y-125045316D01*
X121274485Y-125062125D01*
X121205192Y-125053170D01*
X121151740Y-125008174D01*
X121131101Y-124941422D01*
X121131470Y-124929924D01*
X121132192Y-124920744D01*
X120563585Y-124352137D01*
X120648694Y-124329333D01*
X120751306Y-124270090D01*
X120835090Y-124186306D01*
X120894333Y-124083694D01*
X120917138Y-123998584D01*
X121110677Y-124192122D01*
G37*
%TD.AperFunction*%
%TA.AperFunction,Conductor*%
G36*
X139110677Y-124192122D02*
G01*
X139140927Y-124241485D01*
X139208400Y-124449145D01*
X139308766Y-124646121D01*
X139438701Y-124824963D01*
X139438705Y-124824968D01*
X139448899Y-124835162D01*
X139454932Y-124846211D01*
X139464566Y-124854321D01*
X139471361Y-124876298D01*
X139482384Y-124896485D01*
X139481485Y-124909044D01*
X139485205Y-124921073D01*
X139479040Y-124943231D01*
X139477400Y-124966177D01*
X139469854Y-124976256D01*
X139466480Y-124988386D01*
X139449312Y-125003695D01*
X139435528Y-125022110D01*
X139422484Y-125027622D01*
X139414335Y-125034890D01*
X139380615Y-125045316D01*
X139274485Y-125062125D01*
X139205192Y-125053170D01*
X139151740Y-125008174D01*
X139131101Y-124941422D01*
X139131470Y-124929924D01*
X139132192Y-124920744D01*
X138563585Y-124352137D01*
X138648694Y-124329333D01*
X138751306Y-124270090D01*
X138835090Y-124186306D01*
X138894333Y-124083694D01*
X138917138Y-123998584D01*
X139110677Y-124192122D01*
G37*
%TD.AperFunction*%
%TA.AperFunction,Conductor*%
G36*
X157110677Y-124192122D02*
G01*
X157140927Y-124241485D01*
X157208400Y-124449145D01*
X157308766Y-124646121D01*
X157438701Y-124824963D01*
X157438705Y-124824968D01*
X157448899Y-124835162D01*
X157454932Y-124846211D01*
X157464566Y-124854321D01*
X157471361Y-124876298D01*
X157482384Y-124896485D01*
X157481485Y-124909044D01*
X157485205Y-124921073D01*
X157479040Y-124943231D01*
X157477400Y-124966177D01*
X157469854Y-124976256D01*
X157466480Y-124988386D01*
X157449312Y-125003695D01*
X157435528Y-125022110D01*
X157422484Y-125027622D01*
X157414335Y-125034890D01*
X157380615Y-125045316D01*
X157274485Y-125062125D01*
X157205192Y-125053170D01*
X157151740Y-125008174D01*
X157131101Y-124941422D01*
X157131470Y-124929924D01*
X157132192Y-124920744D01*
X156563585Y-124352137D01*
X156648694Y-124329333D01*
X156751306Y-124270090D01*
X156835090Y-124186306D01*
X156894333Y-124083694D01*
X156917138Y-123998584D01*
X157110677Y-124192122D01*
G37*
%TD.AperFunction*%
%TA.AperFunction,Conductor*%
G36*
X122794806Y-109896829D02*
G01*
X122848258Y-109941825D01*
X122868897Y-110008577D01*
X122868528Y-110020075D01*
X122867805Y-110029252D01*
X123436415Y-110597861D01*
X123351306Y-110620667D01*
X123248694Y-110679910D01*
X123164910Y-110763694D01*
X123105667Y-110866306D01*
X123082861Y-110951415D01*
X122889323Y-110757877D01*
X122859073Y-110708515D01*
X122849779Y-110679910D01*
X122791601Y-110500859D01*
X122791599Y-110500855D01*
X122791599Y-110500854D01*
X122731450Y-110382806D01*
X122691236Y-110303882D01*
X122674634Y-110281031D01*
X122561298Y-110125036D01*
X122561294Y-110125031D01*
X122551100Y-110114837D01*
X122545066Y-110103787D01*
X122535433Y-110095678D01*
X122528637Y-110073700D01*
X122517615Y-110053514D01*
X122518513Y-110040954D01*
X122514794Y-110028926D01*
X122520958Y-110006767D01*
X122522599Y-109983822D01*
X122530144Y-109973742D01*
X122533519Y-109961613D01*
X122550686Y-109946303D01*
X122564471Y-109927889D01*
X122577514Y-109922376D01*
X122585664Y-109915109D01*
X122619383Y-109904683D01*
X122725512Y-109887874D01*
X122794806Y-109896829D01*
G37*
%TD.AperFunction*%
%TA.AperFunction,Conductor*%
G36*
X140794806Y-109896829D02*
G01*
X140848258Y-109941825D01*
X140868897Y-110008577D01*
X140868528Y-110020075D01*
X140867805Y-110029252D01*
X141436415Y-110597861D01*
X141351306Y-110620667D01*
X141248694Y-110679910D01*
X141164910Y-110763694D01*
X141105667Y-110866306D01*
X141082861Y-110951415D01*
X140889323Y-110757877D01*
X140859073Y-110708515D01*
X140849779Y-110679910D01*
X140791601Y-110500859D01*
X140791599Y-110500855D01*
X140791599Y-110500854D01*
X140731450Y-110382806D01*
X140691236Y-110303882D01*
X140674634Y-110281031D01*
X140561298Y-110125036D01*
X140561294Y-110125031D01*
X140551100Y-110114837D01*
X140545066Y-110103787D01*
X140535433Y-110095678D01*
X140528637Y-110073700D01*
X140517615Y-110053514D01*
X140518513Y-110040954D01*
X140514794Y-110028926D01*
X140520958Y-110006767D01*
X140522599Y-109983822D01*
X140530144Y-109973742D01*
X140533519Y-109961613D01*
X140550686Y-109946303D01*
X140564471Y-109927889D01*
X140577514Y-109922376D01*
X140585664Y-109915109D01*
X140619383Y-109904683D01*
X140725512Y-109887874D01*
X140794806Y-109896829D01*
G37*
%TD.AperFunction*%
%TA.AperFunction,Conductor*%
G36*
X158794806Y-109896829D02*
G01*
X158848258Y-109941825D01*
X158868897Y-110008577D01*
X158868528Y-110020075D01*
X158867805Y-110029252D01*
X159436415Y-110597861D01*
X159351306Y-110620667D01*
X159248694Y-110679910D01*
X159164910Y-110763694D01*
X159105667Y-110866306D01*
X159082861Y-110951415D01*
X158889323Y-110757877D01*
X158859073Y-110708515D01*
X158849779Y-110679910D01*
X158791601Y-110500859D01*
X158791599Y-110500855D01*
X158791599Y-110500854D01*
X158731450Y-110382806D01*
X158691236Y-110303882D01*
X158674634Y-110281031D01*
X158561298Y-110125036D01*
X158561294Y-110125031D01*
X158551100Y-110114837D01*
X158545066Y-110103787D01*
X158535433Y-110095678D01*
X158528637Y-110073700D01*
X158517615Y-110053514D01*
X158518513Y-110040954D01*
X158514794Y-110028926D01*
X158520958Y-110006767D01*
X158522599Y-109983822D01*
X158530144Y-109973742D01*
X158533519Y-109961613D01*
X158550686Y-109946303D01*
X158564471Y-109927889D01*
X158577514Y-109922376D01*
X158585664Y-109915109D01*
X158619383Y-109904683D01*
X158725512Y-109887874D01*
X158794806Y-109896829D01*
G37*
%TD.AperFunction*%
%TA.AperFunction,Conductor*%
G36*
X136940054Y-109519685D02*
G01*
X136985809Y-109572489D01*
X136995753Y-109641647D01*
X136966728Y-109705203D01*
X136924812Y-109735425D01*
X136925200Y-109736187D01*
X136723878Y-109838766D01*
X136545036Y-109968701D01*
X136545031Y-109968705D01*
X136388705Y-110125031D01*
X136388701Y-110125036D01*
X136258766Y-110303878D01*
X136158400Y-110500855D01*
X136147412Y-110534674D01*
X136145859Y-110536944D01*
X136145663Y-110539689D01*
X136126249Y-110565621D01*
X136107973Y-110592349D01*
X136105439Y-110593419D01*
X136103791Y-110595622D01*
X136073447Y-110606939D01*
X136043615Y-110619547D01*
X136040904Y-110619077D01*
X136038327Y-110620039D01*
X136006686Y-110613155D01*
X135974768Y-110607632D01*
X135971918Y-110605592D01*
X135970054Y-110605187D01*
X135941800Y-110584036D01*
X135936819Y-110579055D01*
X135903334Y-110517732D01*
X135900500Y-110491374D01*
X135900500Y-109624000D01*
X135920185Y-109556961D01*
X135972989Y-109511206D01*
X136024500Y-109500000D01*
X136873015Y-109500000D01*
X136940054Y-109519685D01*
G37*
%TD.AperFunction*%
%TA.AperFunction,Conductor*%
G36*
X118940054Y-109519685D02*
G01*
X118985809Y-109572489D01*
X118995753Y-109641647D01*
X118966728Y-109705203D01*
X118924812Y-109735425D01*
X118925200Y-109736187D01*
X118723882Y-109838763D01*
X118667385Y-109879811D01*
X118601578Y-109903290D01*
X118533524Y-109887464D01*
X118484830Y-109837358D01*
X118470500Y-109779492D01*
X118470500Y-109624000D01*
X118490185Y-109556961D01*
X118542989Y-109511206D01*
X118594500Y-109500000D01*
X118873015Y-109500000D01*
X118940054Y-109519685D01*
G37*
%TD.AperFunction*%
%TD*%
M02*
