M48
; DRILL file {KiCad 9.0.4} date 2026-05-16T22:08:27+0200
; FORMAT={-:-/ absolute / metric / decimal}
; #@! TF.CreationDate,2026-05-16T22:08:27+02:00
; #@! TF.GenerationSoftware,Kicad,Pcbnew,9.0.4
; #@! TF.FileFunction,Plated,1,2,PTH
FMAT,2
METRIC
; #@! TA.AperFunction,Plated,PTH,ViaDrill
T1C0.300
; #@! TA.AperFunction,Plated,PTH,ComponentDrill
T2C0.900
%
G90
G05
T1
X108.55Y-113.83
X108.55Y-120.6
X112.25Y-120.03
X112.65Y-110.45
X113.3Y-115.0
X114.2Y-121.9
X114.85Y-124.95
X116.0Y-114.9
X116.1Y-121.9
X117.433Y-113.6
X118.355Y-126.435
X118.435Y-121.87
X118.75Y-108.95
X119.43Y-112.05
X120.5Y-119.95
X120.5Y-121.85
X123.55Y-112.7
X123.7Y-114.95
X124.52Y-122.59
X124.9Y-120.15
X125.6Y-110.4
X125.7Y-125.925
X125.74Y-108.53
X128.825Y-124.575
X129.1Y-110.4
X132.5Y-124.5
X133.0Y-110.4
X136.244Y-126.466
X136.375Y-108.85
X136.625Y-124.525
X136.75Y-115.1
X137.45Y-112.04
X138.45Y-119.95
X138.45Y-122.25
X141.55Y-112.65
X141.55Y-115.05
X142.58Y-122.86
X143.3Y-125.6
X143.5Y-110.3
X143.55Y-119.45
X143.68Y-108.5
X147.0Y-124.6
X147.8Y-110.3
X150.9Y-124.5
X151.3Y-110.3
X154.32Y-126.46
X154.6Y-124.5
X154.875Y-108.8
X155.3Y-115.15
X155.46Y-112.03
X156.475Y-122.2
X156.5Y-119.95
X159.5Y-112.7
X159.55Y-115.35
X160.58Y-122.9
X161.425Y-125.9
X161.6Y-112.5
X161.67Y-108.5
X162.0Y-119.4
X163.0Y-121.1
X163.9Y-112.5
X166.4Y-112.5
X166.6Y-114.95
X166.8Y-120.4
X167.3Y-124.2
X168.21Y-114.25
X170.7Y-114.25
X171.46Y-121.15
T2
X108.55Y-114.96
X108.55Y-116.99
X108.55Y-119.025
X111.09Y-115.975
X111.09Y-118.01
X111.09Y-120.04
X119.46Y-111.04
X119.46Y-126.45
X120.475Y-108.5
X120.475Y-123.91
X121.49Y-111.04
X121.49Y-126.45
X122.51Y-108.5
X122.51Y-123.91
X123.525Y-111.04
X123.525Y-126.45
X124.54Y-108.5
X124.54Y-123.91
X137.46Y-111.04
X137.46Y-126.45
X138.475Y-108.5
X138.475Y-123.91
X139.49Y-111.04
X139.49Y-126.45
X140.51Y-108.5
X140.51Y-123.91
X141.525Y-111.04
X141.525Y-126.45
X142.54Y-108.5
X142.54Y-123.91
X155.46Y-111.04
X155.46Y-126.45
X156.475Y-108.5
X156.475Y-123.91
X157.49Y-111.04
X157.49Y-126.45
X158.51Y-108.5
X158.51Y-123.91
X159.525Y-111.04
X159.525Y-126.45
X160.54Y-108.5
X160.54Y-123.91
X168.91Y-114.96
X168.91Y-116.99
X168.91Y-119.025
X171.45Y-115.975
X171.45Y-118.01
X171.45Y-120.04
M30
