%TF.GenerationSoftware,KiCad,Pcbnew,9.0.4*%
%TF.CreationDate,2026-05-16T22:08:25+02:00*%
%TF.ProjectId,lnet_distribution,6c6e6574-5f64-4697-9374-726962757469,rev?*%
%TF.SameCoordinates,Original*%
%TF.FileFunction,Legend,Top*%
%TF.FilePolarity,Positive*%
%FSLAX46Y46*%
G04 Gerber Fmt 4.6, Leading zero omitted, Abs format (unit mm)*
G04 Created by KiCad (PCBNEW 9.0.4) date 2026-05-16 22:08:25*
%MOMM*%
%LPD*%
G01*
G04 APERTURE LIST*
%ADD10C,0.137500*%
%ADD11C,0.152400*%
G04 APERTURE END LIST*
D10*
X115088555Y-120689278D02*
X115088555Y-119189278D01*
X115517126Y-120689278D02*
X115517126Y-119903564D01*
X115517126Y-119903564D02*
X115469507Y-119760707D01*
X115469507Y-119760707D02*
X115374269Y-119689278D01*
X115374269Y-119689278D02*
X115231412Y-119689278D01*
X115231412Y-119689278D02*
X115136174Y-119760707D01*
X115136174Y-119760707D02*
X115088555Y-119832135D01*
X115850460Y-119689278D02*
X116231412Y-119689278D01*
X115993317Y-119189278D02*
X115993317Y-120474992D01*
X115993317Y-120474992D02*
X116040936Y-120617850D01*
X116040936Y-120617850D02*
X116136174Y-120689278D01*
X116136174Y-120689278D02*
X116231412Y-120689278D01*
X116421889Y-119689278D02*
X116802841Y-119689278D01*
X116564746Y-119189278D02*
X116564746Y-120474992D01*
X116564746Y-120474992D02*
X116612365Y-120617850D01*
X116612365Y-120617850D02*
X116707603Y-120689278D01*
X116707603Y-120689278D02*
X116802841Y-120689278D01*
X117136175Y-119689278D02*
X117136175Y-121189278D01*
X117136175Y-119760707D02*
X117231413Y-119689278D01*
X117231413Y-119689278D02*
X117421889Y-119689278D01*
X117421889Y-119689278D02*
X117517127Y-119760707D01*
X117517127Y-119760707D02*
X117564746Y-119832135D01*
X117564746Y-119832135D02*
X117612365Y-119974992D01*
X117612365Y-119974992D02*
X117612365Y-120403564D01*
X117612365Y-120403564D02*
X117564746Y-120546421D01*
X117564746Y-120546421D02*
X117517127Y-120617850D01*
X117517127Y-120617850D02*
X117421889Y-120689278D01*
X117421889Y-120689278D02*
X117231413Y-120689278D01*
X117231413Y-120689278D02*
X117136175Y-120617850D01*
X117993318Y-120617850D02*
X118088556Y-120689278D01*
X118088556Y-120689278D02*
X118279032Y-120689278D01*
X118279032Y-120689278D02*
X118374270Y-120617850D01*
X118374270Y-120617850D02*
X118421889Y-120474992D01*
X118421889Y-120474992D02*
X118421889Y-120403564D01*
X118421889Y-120403564D02*
X118374270Y-120260707D01*
X118374270Y-120260707D02*
X118279032Y-120189278D01*
X118279032Y-120189278D02*
X118136175Y-120189278D01*
X118136175Y-120189278D02*
X118040937Y-120117850D01*
X118040937Y-120117850D02*
X117993318Y-119974992D01*
X117993318Y-119974992D02*
X117993318Y-119903564D01*
X117993318Y-119903564D02*
X118040937Y-119760707D01*
X118040937Y-119760707D02*
X118136175Y-119689278D01*
X118136175Y-119689278D02*
X118279032Y-119689278D01*
X118279032Y-119689278D02*
X118374270Y-119760707D01*
X118850461Y-120546421D02*
X118898080Y-120617850D01*
X118898080Y-120617850D02*
X118850461Y-120689278D01*
X118850461Y-120689278D02*
X118802842Y-120617850D01*
X118802842Y-120617850D02*
X118850461Y-120546421D01*
X118850461Y-120546421D02*
X118850461Y-120689278D01*
X118850461Y-119760707D02*
X118898080Y-119832135D01*
X118898080Y-119832135D02*
X118850461Y-119903564D01*
X118850461Y-119903564D02*
X118802842Y-119832135D01*
X118802842Y-119832135D02*
X118850461Y-119760707D01*
X118850461Y-119760707D02*
X118850461Y-119903564D01*
X120040936Y-119117850D02*
X119183794Y-121046421D01*
X121088555Y-119117850D02*
X120231413Y-121046421D01*
X121850460Y-119689278D02*
X121850460Y-120903564D01*
X121850460Y-120903564D02*
X121802841Y-121046421D01*
X121802841Y-121046421D02*
X121755222Y-121117850D01*
X121755222Y-121117850D02*
X121659984Y-121189278D01*
X121659984Y-121189278D02*
X121517127Y-121189278D01*
X121517127Y-121189278D02*
X121421889Y-121117850D01*
X121850460Y-120617850D02*
X121755222Y-120689278D01*
X121755222Y-120689278D02*
X121564746Y-120689278D01*
X121564746Y-120689278D02*
X121469508Y-120617850D01*
X121469508Y-120617850D02*
X121421889Y-120546421D01*
X121421889Y-120546421D02*
X121374270Y-120403564D01*
X121374270Y-120403564D02*
X121374270Y-119974992D01*
X121374270Y-119974992D02*
X121421889Y-119832135D01*
X121421889Y-119832135D02*
X121469508Y-119760707D01*
X121469508Y-119760707D02*
X121564746Y-119689278D01*
X121564746Y-119689278D02*
X121755222Y-119689278D01*
X121755222Y-119689278D02*
X121850460Y-119760707D01*
X122326651Y-120689278D02*
X122326651Y-119689278D01*
X122326651Y-119189278D02*
X122279032Y-119260707D01*
X122279032Y-119260707D02*
X122326651Y-119332135D01*
X122326651Y-119332135D02*
X122374270Y-119260707D01*
X122374270Y-119260707D02*
X122326651Y-119189278D01*
X122326651Y-119189278D02*
X122326651Y-119332135D01*
X122659984Y-119689278D02*
X123040936Y-119689278D01*
X122802841Y-119189278D02*
X122802841Y-120474992D01*
X122802841Y-120474992D02*
X122850460Y-120617850D01*
X122850460Y-120617850D02*
X122945698Y-120689278D01*
X122945698Y-120689278D02*
X123040936Y-120689278D01*
X123374270Y-120689278D02*
X123374270Y-119189278D01*
X123802841Y-120689278D02*
X123802841Y-119903564D01*
X123802841Y-119903564D02*
X123755222Y-119760707D01*
X123755222Y-119760707D02*
X123659984Y-119689278D01*
X123659984Y-119689278D02*
X123517127Y-119689278D01*
X123517127Y-119689278D02*
X123421889Y-119760707D01*
X123421889Y-119760707D02*
X123374270Y-119832135D01*
X124707603Y-119689278D02*
X124707603Y-120689278D01*
X124279032Y-119689278D02*
X124279032Y-120474992D01*
X124279032Y-120474992D02*
X124326651Y-120617850D01*
X124326651Y-120617850D02*
X124421889Y-120689278D01*
X124421889Y-120689278D02*
X124564746Y-120689278D01*
X124564746Y-120689278D02*
X124659984Y-120617850D01*
X124659984Y-120617850D02*
X124707603Y-120546421D01*
X125183794Y-120689278D02*
X125183794Y-119189278D01*
X125183794Y-119760707D02*
X125279032Y-119689278D01*
X125279032Y-119689278D02*
X125469508Y-119689278D01*
X125469508Y-119689278D02*
X125564746Y-119760707D01*
X125564746Y-119760707D02*
X125612365Y-119832135D01*
X125612365Y-119832135D02*
X125659984Y-119974992D01*
X125659984Y-119974992D02*
X125659984Y-120403564D01*
X125659984Y-120403564D02*
X125612365Y-120546421D01*
X125612365Y-120546421D02*
X125564746Y-120617850D01*
X125564746Y-120617850D02*
X125469508Y-120689278D01*
X125469508Y-120689278D02*
X125279032Y-120689278D01*
X125279032Y-120689278D02*
X125183794Y-120617850D01*
X126088556Y-120546421D02*
X126136175Y-120617850D01*
X126136175Y-120617850D02*
X126088556Y-120689278D01*
X126088556Y-120689278D02*
X126040937Y-120617850D01*
X126040937Y-120617850D02*
X126088556Y-120546421D01*
X126088556Y-120546421D02*
X126088556Y-120689278D01*
X126993317Y-120617850D02*
X126898079Y-120689278D01*
X126898079Y-120689278D02*
X126707603Y-120689278D01*
X126707603Y-120689278D02*
X126612365Y-120617850D01*
X126612365Y-120617850D02*
X126564746Y-120546421D01*
X126564746Y-120546421D02*
X126517127Y-120403564D01*
X126517127Y-120403564D02*
X126517127Y-119974992D01*
X126517127Y-119974992D02*
X126564746Y-119832135D01*
X126564746Y-119832135D02*
X126612365Y-119760707D01*
X126612365Y-119760707D02*
X126707603Y-119689278D01*
X126707603Y-119689278D02*
X126898079Y-119689278D01*
X126898079Y-119689278D02*
X126993317Y-119760707D01*
X127564746Y-120689278D02*
X127469508Y-120617850D01*
X127469508Y-120617850D02*
X127421889Y-120546421D01*
X127421889Y-120546421D02*
X127374270Y-120403564D01*
X127374270Y-120403564D02*
X127374270Y-119974992D01*
X127374270Y-119974992D02*
X127421889Y-119832135D01*
X127421889Y-119832135D02*
X127469508Y-119760707D01*
X127469508Y-119760707D02*
X127564746Y-119689278D01*
X127564746Y-119689278D02*
X127707603Y-119689278D01*
X127707603Y-119689278D02*
X127802841Y-119760707D01*
X127802841Y-119760707D02*
X127850460Y-119832135D01*
X127850460Y-119832135D02*
X127898079Y-119974992D01*
X127898079Y-119974992D02*
X127898079Y-120403564D01*
X127898079Y-120403564D02*
X127850460Y-120546421D01*
X127850460Y-120546421D02*
X127802841Y-120617850D01*
X127802841Y-120617850D02*
X127707603Y-120689278D01*
X127707603Y-120689278D02*
X127564746Y-120689278D01*
X128326651Y-120689278D02*
X128326651Y-119689278D01*
X128326651Y-119832135D02*
X128374270Y-119760707D01*
X128374270Y-119760707D02*
X128469508Y-119689278D01*
X128469508Y-119689278D02*
X128612365Y-119689278D01*
X128612365Y-119689278D02*
X128707603Y-119760707D01*
X128707603Y-119760707D02*
X128755222Y-119903564D01*
X128755222Y-119903564D02*
X128755222Y-120689278D01*
X128755222Y-119903564D02*
X128802841Y-119760707D01*
X128802841Y-119760707D02*
X128898079Y-119689278D01*
X128898079Y-119689278D02*
X129040936Y-119689278D01*
X129040936Y-119689278D02*
X129136175Y-119760707D01*
X129136175Y-119760707D02*
X129183794Y-119903564D01*
X129183794Y-119903564D02*
X129183794Y-120689278D01*
X130374269Y-119117850D02*
X129517127Y-121046421D01*
X130707603Y-120689278D02*
X130707603Y-119689278D01*
X130707603Y-119832135D02*
X130755222Y-119760707D01*
X130755222Y-119760707D02*
X130850460Y-119689278D01*
X130850460Y-119689278D02*
X130993317Y-119689278D01*
X130993317Y-119689278D02*
X131088555Y-119760707D01*
X131088555Y-119760707D02*
X131136174Y-119903564D01*
X131136174Y-119903564D02*
X131136174Y-120689278D01*
X131136174Y-119903564D02*
X131183793Y-119760707D01*
X131183793Y-119760707D02*
X131279031Y-119689278D01*
X131279031Y-119689278D02*
X131421888Y-119689278D01*
X131421888Y-119689278D02*
X131517127Y-119760707D01*
X131517127Y-119760707D02*
X131564746Y-119903564D01*
X131564746Y-119903564D02*
X131564746Y-120689278D01*
X132040936Y-120689278D02*
X132040936Y-119689278D01*
X132040936Y-119189278D02*
X131993317Y-119260707D01*
X131993317Y-119260707D02*
X132040936Y-119332135D01*
X132040936Y-119332135D02*
X132088555Y-119260707D01*
X132088555Y-119260707D02*
X132040936Y-119189278D01*
X132040936Y-119189278D02*
X132040936Y-119332135D01*
X132517126Y-120689278D02*
X132517126Y-119189278D01*
X132612364Y-120117850D02*
X132898078Y-120689278D01*
X132898078Y-119689278D02*
X132517126Y-120260707D01*
X133755221Y-120689278D02*
X133755221Y-119903564D01*
X133755221Y-119903564D02*
X133707602Y-119760707D01*
X133707602Y-119760707D02*
X133612364Y-119689278D01*
X133612364Y-119689278D02*
X133421888Y-119689278D01*
X133421888Y-119689278D02*
X133326650Y-119760707D01*
X133755221Y-120617850D02*
X133659983Y-120689278D01*
X133659983Y-120689278D02*
X133421888Y-120689278D01*
X133421888Y-120689278D02*
X133326650Y-120617850D01*
X133326650Y-120617850D02*
X133279031Y-120474992D01*
X133279031Y-120474992D02*
X133279031Y-120332135D01*
X133279031Y-120332135D02*
X133326650Y-120189278D01*
X133326650Y-120189278D02*
X133421888Y-120117850D01*
X133421888Y-120117850D02*
X133659983Y-120117850D01*
X133659983Y-120117850D02*
X133755221Y-120046421D01*
X134612364Y-120617850D02*
X134517126Y-120689278D01*
X134517126Y-120689278D02*
X134326650Y-120689278D01*
X134326650Y-120689278D02*
X134231412Y-120617850D01*
X134231412Y-120617850D02*
X134183793Y-120474992D01*
X134183793Y-120474992D02*
X134183793Y-119903564D01*
X134183793Y-119903564D02*
X134231412Y-119760707D01*
X134231412Y-119760707D02*
X134326650Y-119689278D01*
X134326650Y-119689278D02*
X134517126Y-119689278D01*
X134517126Y-119689278D02*
X134612364Y-119760707D01*
X134612364Y-119760707D02*
X134659983Y-119903564D01*
X134659983Y-119903564D02*
X134659983Y-120046421D01*
X134659983Y-120046421D02*
X134183793Y-120189278D01*
X135231412Y-120689278D02*
X135136174Y-120617850D01*
X135136174Y-120617850D02*
X135088555Y-120474992D01*
X135088555Y-120474992D02*
X135088555Y-119189278D01*
X135564746Y-120617850D02*
X135659984Y-120689278D01*
X135659984Y-120689278D02*
X135850460Y-120689278D01*
X135850460Y-120689278D02*
X135945698Y-120617850D01*
X135945698Y-120617850D02*
X135993317Y-120474992D01*
X135993317Y-120474992D02*
X135993317Y-120403564D01*
X135993317Y-120403564D02*
X135945698Y-120260707D01*
X135945698Y-120260707D02*
X135850460Y-120189278D01*
X135850460Y-120189278D02*
X135707603Y-120189278D01*
X135707603Y-120189278D02*
X135612365Y-120117850D01*
X135612365Y-120117850D02*
X135564746Y-119974992D01*
X135564746Y-119974992D02*
X135564746Y-119903564D01*
X135564746Y-119903564D02*
X135612365Y-119760707D01*
X135612365Y-119760707D02*
X135707603Y-119689278D01*
X135707603Y-119689278D02*
X135850460Y-119689278D01*
X135850460Y-119689278D02*
X135945698Y-119760707D01*
X136850460Y-119689278D02*
X136850460Y-120689278D01*
X136421889Y-119689278D02*
X136421889Y-120474992D01*
X136421889Y-120474992D02*
X136469508Y-120617850D01*
X136469508Y-120617850D02*
X136564746Y-120689278D01*
X136564746Y-120689278D02*
X136707603Y-120689278D01*
X136707603Y-120689278D02*
X136802841Y-120617850D01*
X136802841Y-120617850D02*
X136850460Y-120546421D01*
X137326651Y-119689278D02*
X137326651Y-120689278D01*
X137326651Y-119832135D02*
X137374270Y-119760707D01*
X137374270Y-119760707D02*
X137469508Y-119689278D01*
X137469508Y-119689278D02*
X137612365Y-119689278D01*
X137612365Y-119689278D02*
X137707603Y-119760707D01*
X137707603Y-119760707D02*
X137755222Y-119903564D01*
X137755222Y-119903564D02*
X137755222Y-120689278D01*
X138659984Y-120689278D02*
X138659984Y-119189278D01*
X138659984Y-120617850D02*
X138564746Y-120689278D01*
X138564746Y-120689278D02*
X138374270Y-120689278D01*
X138374270Y-120689278D02*
X138279032Y-120617850D01*
X138279032Y-120617850D02*
X138231413Y-120546421D01*
X138231413Y-120546421D02*
X138183794Y-120403564D01*
X138183794Y-120403564D02*
X138183794Y-119974992D01*
X138183794Y-119974992D02*
X138231413Y-119832135D01*
X138231413Y-119832135D02*
X138279032Y-119760707D01*
X138279032Y-119760707D02*
X138374270Y-119689278D01*
X138374270Y-119689278D02*
X138564746Y-119689278D01*
X138564746Y-119689278D02*
X138659984Y-119760707D01*
X139136175Y-120689278D02*
X139136175Y-119689278D01*
X139136175Y-119189278D02*
X139088556Y-119260707D01*
X139088556Y-119260707D02*
X139136175Y-119332135D01*
X139136175Y-119332135D02*
X139183794Y-119260707D01*
X139183794Y-119260707D02*
X139136175Y-119189278D01*
X139136175Y-119189278D02*
X139136175Y-119332135D01*
X139612365Y-119689278D02*
X139612365Y-120689278D01*
X139612365Y-119832135D02*
X139659984Y-119760707D01*
X139659984Y-119760707D02*
X139755222Y-119689278D01*
X139755222Y-119689278D02*
X139898079Y-119689278D01*
X139898079Y-119689278D02*
X139993317Y-119760707D01*
X139993317Y-119760707D02*
X140040936Y-119903564D01*
X140040936Y-119903564D02*
X140040936Y-120689278D01*
X141231412Y-119117850D02*
X140374270Y-121046421D01*
X141564746Y-120689278D02*
X141564746Y-119689278D01*
X141564746Y-119832135D02*
X141612365Y-119760707D01*
X141612365Y-119760707D02*
X141707603Y-119689278D01*
X141707603Y-119689278D02*
X141850460Y-119689278D01*
X141850460Y-119689278D02*
X141945698Y-119760707D01*
X141945698Y-119760707D02*
X141993317Y-119903564D01*
X141993317Y-119903564D02*
X141993317Y-120689278D01*
X141993317Y-119903564D02*
X142040936Y-119760707D01*
X142040936Y-119760707D02*
X142136174Y-119689278D01*
X142136174Y-119689278D02*
X142279031Y-119689278D01*
X142279031Y-119689278D02*
X142374270Y-119760707D01*
X142374270Y-119760707D02*
X142421889Y-119903564D01*
X142421889Y-119903564D02*
X142421889Y-120689278D01*
X143040936Y-120689278D02*
X142945698Y-120617850D01*
X142945698Y-120617850D02*
X142898079Y-120546421D01*
X142898079Y-120546421D02*
X142850460Y-120403564D01*
X142850460Y-120403564D02*
X142850460Y-119974992D01*
X142850460Y-119974992D02*
X142898079Y-119832135D01*
X142898079Y-119832135D02*
X142945698Y-119760707D01*
X142945698Y-119760707D02*
X143040936Y-119689278D01*
X143040936Y-119689278D02*
X143183793Y-119689278D01*
X143183793Y-119689278D02*
X143279031Y-119760707D01*
X143279031Y-119760707D02*
X143326650Y-119832135D01*
X143326650Y-119832135D02*
X143374269Y-119974992D01*
X143374269Y-119974992D02*
X143374269Y-120403564D01*
X143374269Y-120403564D02*
X143326650Y-120546421D01*
X143326650Y-120546421D02*
X143279031Y-120617850D01*
X143279031Y-120617850D02*
X143183793Y-120689278D01*
X143183793Y-120689278D02*
X143040936Y-120689278D01*
X144231412Y-120689278D02*
X144231412Y-119189278D01*
X144231412Y-120617850D02*
X144136174Y-120689278D01*
X144136174Y-120689278D02*
X143945698Y-120689278D01*
X143945698Y-120689278D02*
X143850460Y-120617850D01*
X143850460Y-120617850D02*
X143802841Y-120546421D01*
X143802841Y-120546421D02*
X143755222Y-120403564D01*
X143755222Y-120403564D02*
X143755222Y-119974992D01*
X143755222Y-119974992D02*
X143802841Y-119832135D01*
X143802841Y-119832135D02*
X143850460Y-119760707D01*
X143850460Y-119760707D02*
X143945698Y-119689278D01*
X143945698Y-119689278D02*
X144136174Y-119689278D01*
X144136174Y-119689278D02*
X144231412Y-119760707D01*
X145088555Y-120617850D02*
X144993317Y-120689278D01*
X144993317Y-120689278D02*
X144802841Y-120689278D01*
X144802841Y-120689278D02*
X144707603Y-120617850D01*
X144707603Y-120617850D02*
X144659984Y-120474992D01*
X144659984Y-120474992D02*
X144659984Y-119903564D01*
X144659984Y-119903564D02*
X144707603Y-119760707D01*
X144707603Y-119760707D02*
X144802841Y-119689278D01*
X144802841Y-119689278D02*
X144993317Y-119689278D01*
X144993317Y-119689278D02*
X145088555Y-119760707D01*
X145088555Y-119760707D02*
X145136174Y-119903564D01*
X145136174Y-119903564D02*
X145136174Y-120046421D01*
X145136174Y-120046421D02*
X144659984Y-120189278D01*
X145707603Y-120689278D02*
X145612365Y-120617850D01*
X145612365Y-120617850D02*
X145564746Y-120474992D01*
X145564746Y-120474992D02*
X145564746Y-119189278D01*
X145945699Y-119689278D02*
X146326651Y-119689278D01*
X146088556Y-119189278D02*
X146088556Y-120474992D01*
X146088556Y-120474992D02*
X146136175Y-120617850D01*
X146136175Y-120617850D02*
X146231413Y-120689278D01*
X146231413Y-120689278D02*
X146326651Y-120689278D01*
X146659985Y-120689278D02*
X146659985Y-119689278D01*
X146659985Y-119974992D02*
X146707604Y-119832135D01*
X146707604Y-119832135D02*
X146755223Y-119760707D01*
X146755223Y-119760707D02*
X146850461Y-119689278D01*
X146850461Y-119689278D02*
X146945699Y-119689278D01*
X147707604Y-120689278D02*
X147707604Y-119903564D01*
X147707604Y-119903564D02*
X147659985Y-119760707D01*
X147659985Y-119760707D02*
X147564747Y-119689278D01*
X147564747Y-119689278D02*
X147374271Y-119689278D01*
X147374271Y-119689278D02*
X147279033Y-119760707D01*
X147707604Y-120617850D02*
X147612366Y-120689278D01*
X147612366Y-120689278D02*
X147374271Y-120689278D01*
X147374271Y-120689278D02*
X147279033Y-120617850D01*
X147279033Y-120617850D02*
X147231414Y-120474992D01*
X147231414Y-120474992D02*
X147231414Y-120332135D01*
X147231414Y-120332135D02*
X147279033Y-120189278D01*
X147279033Y-120189278D02*
X147374271Y-120117850D01*
X147374271Y-120117850D02*
X147612366Y-120117850D01*
X147612366Y-120117850D02*
X147707604Y-120046421D01*
X148183795Y-120689278D02*
X148183795Y-119689278D01*
X148183795Y-119189278D02*
X148136176Y-119260707D01*
X148136176Y-119260707D02*
X148183795Y-119332135D01*
X148183795Y-119332135D02*
X148231414Y-119260707D01*
X148231414Y-119260707D02*
X148183795Y-119189278D01*
X148183795Y-119189278D02*
X148183795Y-119332135D01*
X148659985Y-119689278D02*
X148659985Y-120689278D01*
X148659985Y-119832135D02*
X148707604Y-119760707D01*
X148707604Y-119760707D02*
X148802842Y-119689278D01*
X148802842Y-119689278D02*
X148945699Y-119689278D01*
X148945699Y-119689278D02*
X149040937Y-119760707D01*
X149040937Y-119760707D02*
X149088556Y-119903564D01*
X149088556Y-119903564D02*
X149088556Y-120689278D01*
X149326652Y-120832135D02*
X150088556Y-120832135D01*
X150469509Y-120689278D02*
X150374271Y-120617850D01*
X150374271Y-120617850D02*
X150326652Y-120474992D01*
X150326652Y-120474992D02*
X150326652Y-119189278D01*
X150850462Y-119689278D02*
X150850462Y-120689278D01*
X150850462Y-119832135D02*
X150898081Y-119760707D01*
X150898081Y-119760707D02*
X150993319Y-119689278D01*
X150993319Y-119689278D02*
X151136176Y-119689278D01*
X151136176Y-119689278D02*
X151231414Y-119760707D01*
X151231414Y-119760707D02*
X151279033Y-119903564D01*
X151279033Y-119903564D02*
X151279033Y-120689278D01*
X152136176Y-120617850D02*
X152040938Y-120689278D01*
X152040938Y-120689278D02*
X151850462Y-120689278D01*
X151850462Y-120689278D02*
X151755224Y-120617850D01*
X151755224Y-120617850D02*
X151707605Y-120474992D01*
X151707605Y-120474992D02*
X151707605Y-119903564D01*
X151707605Y-119903564D02*
X151755224Y-119760707D01*
X151755224Y-119760707D02*
X151850462Y-119689278D01*
X151850462Y-119689278D02*
X152040938Y-119689278D01*
X152040938Y-119689278D02*
X152136176Y-119760707D01*
X152136176Y-119760707D02*
X152183795Y-119903564D01*
X152183795Y-119903564D02*
X152183795Y-120046421D01*
X152183795Y-120046421D02*
X151707605Y-120189278D01*
X152469510Y-119689278D02*
X152850462Y-119689278D01*
X152612367Y-119189278D02*
X152612367Y-120474992D01*
X152612367Y-120474992D02*
X152659986Y-120617850D01*
X152659986Y-120617850D02*
X152755224Y-120689278D01*
X152755224Y-120689278D02*
X152850462Y-120689278D01*
X152945701Y-120832135D02*
X153707605Y-120832135D01*
X154374272Y-120689278D02*
X154374272Y-119189278D01*
X154374272Y-120617850D02*
X154279034Y-120689278D01*
X154279034Y-120689278D02*
X154088558Y-120689278D01*
X154088558Y-120689278D02*
X153993320Y-120617850D01*
X153993320Y-120617850D02*
X153945701Y-120546421D01*
X153945701Y-120546421D02*
X153898082Y-120403564D01*
X153898082Y-120403564D02*
X153898082Y-119974992D01*
X153898082Y-119974992D02*
X153945701Y-119832135D01*
X153945701Y-119832135D02*
X153993320Y-119760707D01*
X153993320Y-119760707D02*
X154088558Y-119689278D01*
X154088558Y-119689278D02*
X154279034Y-119689278D01*
X154279034Y-119689278D02*
X154374272Y-119760707D01*
X154850463Y-120689278D02*
X154850463Y-119689278D01*
X154850463Y-119189278D02*
X154802844Y-119260707D01*
X154802844Y-119260707D02*
X154850463Y-119332135D01*
X154850463Y-119332135D02*
X154898082Y-119260707D01*
X154898082Y-119260707D02*
X154850463Y-119189278D01*
X154850463Y-119189278D02*
X154850463Y-119332135D01*
X155279034Y-120617850D02*
X155374272Y-120689278D01*
X155374272Y-120689278D02*
X155564748Y-120689278D01*
X155564748Y-120689278D02*
X155659986Y-120617850D01*
X155659986Y-120617850D02*
X155707605Y-120474992D01*
X155707605Y-120474992D02*
X155707605Y-120403564D01*
X155707605Y-120403564D02*
X155659986Y-120260707D01*
X155659986Y-120260707D02*
X155564748Y-120189278D01*
X155564748Y-120189278D02*
X155421891Y-120189278D01*
X155421891Y-120189278D02*
X155326653Y-120117850D01*
X155326653Y-120117850D02*
X155279034Y-119974992D01*
X155279034Y-119974992D02*
X155279034Y-119903564D01*
X155279034Y-119903564D02*
X155326653Y-119760707D01*
X155326653Y-119760707D02*
X155421891Y-119689278D01*
X155421891Y-119689278D02*
X155564748Y-119689278D01*
X155564748Y-119689278D02*
X155659986Y-119760707D01*
X155993320Y-119689278D02*
X156374272Y-119689278D01*
X156136177Y-119189278D02*
X156136177Y-120474992D01*
X156136177Y-120474992D02*
X156183796Y-120617850D01*
X156183796Y-120617850D02*
X156279034Y-120689278D01*
X156279034Y-120689278D02*
X156374272Y-120689278D01*
X156707606Y-120689278D02*
X156707606Y-119689278D01*
X156707606Y-119974992D02*
X156755225Y-119832135D01*
X156755225Y-119832135D02*
X156802844Y-119760707D01*
X156802844Y-119760707D02*
X156898082Y-119689278D01*
X156898082Y-119689278D02*
X156993320Y-119689278D01*
X157326654Y-120689278D02*
X157326654Y-119689278D01*
X157326654Y-119189278D02*
X157279035Y-119260707D01*
X157279035Y-119260707D02*
X157326654Y-119332135D01*
X157326654Y-119332135D02*
X157374273Y-119260707D01*
X157374273Y-119260707D02*
X157326654Y-119189278D01*
X157326654Y-119189278D02*
X157326654Y-119332135D01*
X157802844Y-120689278D02*
X157802844Y-119189278D01*
X157802844Y-119760707D02*
X157898082Y-119689278D01*
X157898082Y-119689278D02*
X158088558Y-119689278D01*
X158088558Y-119689278D02*
X158183796Y-119760707D01*
X158183796Y-119760707D02*
X158231415Y-119832135D01*
X158231415Y-119832135D02*
X158279034Y-119974992D01*
X158279034Y-119974992D02*
X158279034Y-120403564D01*
X158279034Y-120403564D02*
X158231415Y-120546421D01*
X158231415Y-120546421D02*
X158183796Y-120617850D01*
X158183796Y-120617850D02*
X158088558Y-120689278D01*
X158088558Y-120689278D02*
X157898082Y-120689278D01*
X157898082Y-120689278D02*
X157802844Y-120617850D01*
X159136177Y-119689278D02*
X159136177Y-120689278D01*
X158707606Y-119689278D02*
X158707606Y-120474992D01*
X158707606Y-120474992D02*
X158755225Y-120617850D01*
X158755225Y-120617850D02*
X158850463Y-120689278D01*
X158850463Y-120689278D02*
X158993320Y-120689278D01*
X158993320Y-120689278D02*
X159088558Y-120617850D01*
X159088558Y-120617850D02*
X159136177Y-120546421D01*
X159469511Y-119689278D02*
X159850463Y-119689278D01*
X159612368Y-119189278D02*
X159612368Y-120474992D01*
X159612368Y-120474992D02*
X159659987Y-120617850D01*
X159659987Y-120617850D02*
X159755225Y-120689278D01*
X159755225Y-120689278D02*
X159850463Y-120689278D01*
X160326654Y-120689278D02*
X160231416Y-120617850D01*
X160231416Y-120617850D02*
X160183797Y-120546421D01*
X160183797Y-120546421D02*
X160136178Y-120403564D01*
X160136178Y-120403564D02*
X160136178Y-119974992D01*
X160136178Y-119974992D02*
X160183797Y-119832135D01*
X160183797Y-119832135D02*
X160231416Y-119760707D01*
X160231416Y-119760707D02*
X160326654Y-119689278D01*
X160326654Y-119689278D02*
X160469511Y-119689278D01*
X160469511Y-119689278D02*
X160564749Y-119760707D01*
X160564749Y-119760707D02*
X160612368Y-119832135D01*
X160612368Y-119832135D02*
X160659987Y-119974992D01*
X160659987Y-119974992D02*
X160659987Y-120403564D01*
X160659987Y-120403564D02*
X160612368Y-120546421D01*
X160612368Y-120546421D02*
X160564749Y-120617850D01*
X160564749Y-120617850D02*
X160469511Y-120689278D01*
X160469511Y-120689278D02*
X160326654Y-120689278D01*
X161088559Y-120689278D02*
X161088559Y-119689278D01*
X161088559Y-119974992D02*
X161136178Y-119832135D01*
X161136178Y-119832135D02*
X161183797Y-119760707D01*
X161183797Y-119760707D02*
X161279035Y-119689278D01*
X161279035Y-119689278D02*
X161374273Y-119689278D01*
X161469512Y-120832135D02*
X162231416Y-120832135D01*
X162469512Y-119689278D02*
X162469512Y-121189278D01*
X162469512Y-119760707D02*
X162564750Y-119689278D01*
X162564750Y-119689278D02*
X162755226Y-119689278D01*
X162755226Y-119689278D02*
X162850464Y-119760707D01*
X162850464Y-119760707D02*
X162898083Y-119832135D01*
X162898083Y-119832135D02*
X162945702Y-119974992D01*
X162945702Y-119974992D02*
X162945702Y-120403564D01*
X162945702Y-120403564D02*
X162898083Y-120546421D01*
X162898083Y-120546421D02*
X162850464Y-120617850D01*
X162850464Y-120617850D02*
X162755226Y-120689278D01*
X162755226Y-120689278D02*
X162564750Y-120689278D01*
X162564750Y-120689278D02*
X162469512Y-120617850D01*
X163802845Y-120617850D02*
X163707607Y-120689278D01*
X163707607Y-120689278D02*
X163517131Y-120689278D01*
X163517131Y-120689278D02*
X163421893Y-120617850D01*
X163421893Y-120617850D02*
X163374274Y-120546421D01*
X163374274Y-120546421D02*
X163326655Y-120403564D01*
X163326655Y-120403564D02*
X163326655Y-119974992D01*
X163326655Y-119974992D02*
X163374274Y-119832135D01*
X163374274Y-119832135D02*
X163421893Y-119760707D01*
X163421893Y-119760707D02*
X163517131Y-119689278D01*
X163517131Y-119689278D02*
X163707607Y-119689278D01*
X163707607Y-119689278D02*
X163802845Y-119760707D01*
X164231417Y-120689278D02*
X164231417Y-119189278D01*
X164231417Y-119760707D02*
X164326655Y-119689278D01*
X164326655Y-119689278D02*
X164517131Y-119689278D01*
X164517131Y-119689278D02*
X164612369Y-119760707D01*
X164612369Y-119760707D02*
X164659988Y-119832135D01*
X164659988Y-119832135D02*
X164707607Y-119974992D01*
X164707607Y-119974992D02*
X164707607Y-120403564D01*
X164707607Y-120403564D02*
X164659988Y-120546421D01*
X164659988Y-120546421D02*
X164612369Y-120617850D01*
X164612369Y-120617850D02*
X164517131Y-120689278D01*
X164517131Y-120689278D02*
X164326655Y-120689278D01*
X164326655Y-120689278D02*
X164231417Y-120617850D01*
X165564750Y-120689278D02*
X165564750Y-119903564D01*
X165564750Y-119903564D02*
X165517131Y-119760707D01*
X165517131Y-119760707D02*
X165421893Y-119689278D01*
X165421893Y-119689278D02*
X165231417Y-119689278D01*
X165231417Y-119689278D02*
X165136179Y-119760707D01*
X165564750Y-120617850D02*
X165469512Y-120689278D01*
X165469512Y-120689278D02*
X165231417Y-120689278D01*
X165231417Y-120689278D02*
X165136179Y-120617850D01*
X165136179Y-120617850D02*
X165088560Y-120474992D01*
X165088560Y-120474992D02*
X165088560Y-120332135D01*
X165088560Y-120332135D02*
X165136179Y-120189278D01*
X165136179Y-120189278D02*
X165231417Y-120117850D01*
X165231417Y-120117850D02*
X165469512Y-120117850D01*
X165469512Y-120117850D02*
X165564750Y-120046421D01*
D11*
%TO.C,J1*%
X115800000Y-100000000D02*
X119000000Y-100000000D01*
X115800000Y-113300000D02*
X115800000Y-100000000D01*
X119000000Y-100000000D02*
X119000000Y-104500000D01*
X119000000Y-100000000D02*
X125000000Y-100000000D01*
X119000000Y-104500000D02*
X125000000Y-104500000D01*
X125000000Y-100000000D02*
X128200000Y-100000000D01*
X125000000Y-104500000D02*
X125000000Y-100000000D01*
X128200000Y-100000000D02*
X128200000Y-113300000D01*
X128200000Y-113300000D02*
X115800000Y-113300000D01*
%TO.C,J7*%
X100050000Y-111300000D02*
X113350000Y-111300000D01*
X100050000Y-114500000D02*
X100050000Y-111300000D01*
X100050000Y-120500000D02*
X100050000Y-114500000D01*
X100050000Y-120500000D02*
X104550000Y-120500000D01*
X100050000Y-123700000D02*
X100050000Y-120500000D01*
X104550000Y-114500000D02*
X100050000Y-114500000D01*
X104550000Y-120500000D02*
X104550000Y-114500000D01*
X113350000Y-111300000D02*
X113350000Y-123700000D01*
X113350000Y-123700000D02*
X100050000Y-123700000D01*
%TO.C,J4*%
X151800000Y-121650000D02*
X164200000Y-121650000D01*
X151800000Y-134950000D02*
X151800000Y-121650000D01*
X155000000Y-130450000D02*
X155000000Y-134950000D01*
X155000000Y-134950000D02*
X151800000Y-134950000D01*
X161000000Y-130450000D02*
X155000000Y-130450000D01*
X161000000Y-134950000D02*
X155000000Y-134950000D01*
X161000000Y-134950000D02*
X161000000Y-130450000D01*
X164200000Y-121650000D02*
X164200000Y-134950000D01*
X164200000Y-134950000D02*
X161000000Y-134950000D01*
%TO.C,J2*%
X166650000Y-111300000D02*
X179950000Y-111300000D01*
X166650000Y-123700000D02*
X166650000Y-111300000D01*
X175450000Y-114500000D02*
X175450000Y-120500000D01*
X175450000Y-120500000D02*
X179950000Y-120500000D01*
X179950000Y-111300000D02*
X179950000Y-114500000D01*
X179950000Y-114500000D02*
X175450000Y-114500000D01*
X179950000Y-114500000D02*
X179950000Y-120500000D01*
X179950000Y-120500000D02*
X179950000Y-123700000D01*
X179950000Y-123700000D02*
X166650000Y-123700000D01*
%TO.C,J6*%
X133800000Y-121650000D02*
X146200000Y-121650000D01*
X133800000Y-134950000D02*
X133800000Y-121650000D01*
X137000000Y-130450000D02*
X137000000Y-134950000D01*
X137000000Y-134950000D02*
X133800000Y-134950000D01*
X143000000Y-130450000D02*
X137000000Y-130450000D01*
X143000000Y-134950000D02*
X137000000Y-134950000D01*
X143000000Y-134950000D02*
X143000000Y-130450000D01*
X146200000Y-121650000D02*
X146200000Y-134950000D01*
X146200000Y-134950000D02*
X143000000Y-134950000D01*
%TO.C,J8*%
X115800000Y-121650000D02*
X128200000Y-121650000D01*
X115800000Y-134950000D02*
X115800000Y-121650000D01*
X119000000Y-130450000D02*
X119000000Y-134950000D01*
X119000000Y-134950000D02*
X115800000Y-134950000D01*
X125000000Y-130450000D02*
X119000000Y-130450000D01*
X125000000Y-134950000D02*
X119000000Y-134950000D01*
X125000000Y-134950000D02*
X125000000Y-130450000D01*
X128200000Y-121650000D02*
X128200000Y-134950000D01*
X128200000Y-134950000D02*
X125000000Y-134950000D01*
%TO.C,J3*%
X133800000Y-100000000D02*
X137000000Y-100000000D01*
X133800000Y-113300000D02*
X133800000Y-100000000D01*
X137000000Y-100000000D02*
X137000000Y-104500000D01*
X137000000Y-100000000D02*
X143000000Y-100000000D01*
X137000000Y-104500000D02*
X143000000Y-104500000D01*
X143000000Y-100000000D02*
X146200000Y-100000000D01*
X143000000Y-104500000D02*
X143000000Y-100000000D01*
X146200000Y-100000000D02*
X146200000Y-113300000D01*
X146200000Y-113300000D02*
X133800000Y-113300000D01*
%TO.C,J5*%
X151800000Y-100000000D02*
X155000000Y-100000000D01*
X151800000Y-113300000D02*
X151800000Y-100000000D01*
X155000000Y-100000000D02*
X155000000Y-104500000D01*
X155000000Y-100000000D02*
X161000000Y-100000000D01*
X155000000Y-104500000D02*
X161000000Y-104500000D01*
X161000000Y-100000000D02*
X164200000Y-100000000D01*
X161000000Y-104500000D02*
X161000000Y-100000000D01*
X164200000Y-100000000D02*
X164200000Y-113300000D01*
X164200000Y-113300000D02*
X151800000Y-113300000D01*
%TD*%
M02*
